<svg width="123" height="32" viewBox="0 0 123 32" fill="none" xmlns="http://www.w3.org/2000/svg">
<path d="M7.08256 6.3515V10.5993H12.56V15.5349H7.08256V30.827H2.18697V15.5349H0V10.5993H2.18697V6.3515C2.18697 5.19178 2.46786 4.13319 3.02965 3.17575C3.60482 2.20482 4.37394 1.43617 5.337 0.869791C6.30007 0.28993 7.36346 0 8.52717 0C9.36985 0 10.2058 0.175307 11.0352 0.525921C11.8645 0.876533 12.6001 1.41594 13.2422 2.14414L9.71094 5.6233C9.59056 5.39405 9.41667 5.22549 9.18928 5.11761C8.97526 4.99624 8.75456 4.93556 8.52717 4.93556C8.13926 4.93556 7.79818 5.07715 7.50391 5.36034C7.22301 5.63004 7.08256 5.96043 7.08256 6.3515Z" fill="#4F3422"/>
<path d="M14.4316 30.827L14.4115 10.5993H19.3071L19.3272 12.3996C20.0094 11.6714 20.8253 11.0983 21.775 10.6802C22.7247 10.2487 23.748 10.0329 24.8448 10.0329C25.5805 10.0329 26.3161 10.1408 27.0518 10.3566L25.1257 15.3326C24.6174 15.1303 24.1091 15.0292 23.6008 15.0292C22.8116 15.0292 22.0893 15.2247 21.4339 15.6158C20.7919 15.9934 20.2769 16.5126 19.889 17.1733C19.5145 17.8206 19.3272 18.5421 19.3272 19.3377V30.827H14.4316Z" fill="#4F3422"/>
<path d="M35.3846 31.3529C33.5387 31.3529 31.8534 30.8742 30.3285 29.9168C28.817 28.9593 27.6065 27.6715 26.6969 26.0533C25.8007 24.4351 25.3526 22.6483 25.3526 20.6929C25.3526 19.2231 25.6135 17.8476 26.1351 16.5665C26.6568 15.2719 27.3724 14.1392 28.282 13.1682C29.2049 12.1838 30.275 11.4152 31.4922 10.8623C32.7094 10.3094 34.0069 10.0329 35.3846 10.0329C36.9496 10.0329 38.3808 10.3701 39.6783 11.0443C40.9891 11.7051 42.0993 12.6153 43.0089 13.7751C43.9185 14.9348 44.5806 16.2563 44.9952 17.7397C45.4099 19.2231 45.5035 20.7739 45.2761 22.3921H30.6094C30.7967 23.1472 31.1043 23.8282 31.5323 24.4351C31.9604 25.0284 32.5021 25.5071 33.1575 25.8712C33.8129 26.2218 34.5553 26.4039 35.3846 26.4174C36.2407 26.4309 37.0165 26.2286 37.712 25.8106C38.421 25.379 39.0095 24.7992 39.4776 24.071L44.4736 25.2442C43.6576 27.0377 42.4404 28.5076 40.8219 29.6538C39.2034 30.7866 37.391 31.3529 35.3846 31.3529ZM30.4489 18.6904H40.3203C40.1732 17.8813 39.8589 17.1531 39.3773 16.5058C38.9092 15.845 38.3273 15.3191 37.6318 14.928C36.9362 14.537 36.1872 14.3414 35.3846 14.3414C34.5821 14.3414 33.8397 14.537 33.1575 14.928C32.4753 15.3056 31.8935 15.8248 31.412 16.4856C30.9438 17.1329 30.6228 17.8678 30.4489 18.6904Z" fill="#4F3422"/>
<path d="M45.5012 23.3428V10.5993H50.3968V22.0482C50.3968 22.8438 50.5908 23.572 50.9787 24.2328C51.3666 24.8801 51.8815 25.3993 52.5236 25.7903C53.179 26.1679 53.8946 26.3567 54.6704 26.3567C55.473 26.3567 56.1953 26.1679 56.8373 25.7903C57.4794 25.3993 57.9944 24.8801 58.3823 24.2328C58.7702 23.572 58.9641 22.8438 58.9641 22.0482V10.5993H63.8597L63.8798 30.827H58.9842L58.9641 28.9863C58.2686 29.7145 57.4459 30.2944 56.4962 30.7259C55.5466 31.1439 54.53 31.3529 53.4465 31.3529C51.9885 31.3529 50.6576 30.9956 49.4538 30.2809C48.25 29.5527 47.2869 28.5885 46.5646 27.3883C45.8557 26.1747 45.5012 24.8261 45.5012 23.3428Z" fill="#4F3422"/>
<path d="M80.9451 0.485463H85.8407V30.827H80.9451V28.2986C80.303 29.2021 79.4938 29.937 78.5173 30.5034C77.5409 31.0698 76.4106 31.3529 75.1265 31.3529C73.6686 31.3529 72.3042 31.0765 71.0335 30.5236C69.7628 29.9707 68.6392 29.2088 67.6628 28.2379C66.6997 27.2535 65.9439 26.1207 65.3955 24.8396C64.8471 23.5585 64.5729 22.1831 64.5729 20.7132C64.5729 19.2433 64.8471 17.8678 65.3955 16.5867C65.9439 15.3056 66.6997 14.1796 67.6628 13.2087C68.6392 12.2243 69.7628 11.4556 71.0335 10.9027C72.3042 10.3498 73.6686 10.0734 75.1265 10.0734C76.4106 10.0734 77.5409 10.3566 78.5173 10.923C79.4938 11.4759 80.303 12.2108 80.9451 13.1278V0.485463ZM75.1867 26.5994C76.2301 26.5994 77.153 26.3365 77.9556 25.8106C78.7581 25.2846 79.3868 24.5767 79.8416 23.6866C80.2963 22.7831 80.5237 21.792 80.5237 20.7132C80.5237 19.6209 80.2963 18.6297 79.8416 17.7397C79.3868 16.8362 78.7514 16.1215 77.9355 15.5956C77.1329 15.0696 76.2167 14.8067 75.1867 14.8067C74.1568 14.8067 73.2138 15.0764 72.3577 15.6158C71.515 16.1417 70.8396 16.8497 70.3313 17.7397C69.8364 18.6297 69.5889 19.6209 69.5889 20.7132C69.5889 21.8055 69.843 22.7966 70.3513 23.6866C70.8596 24.5767 71.5351 25.2846 72.3778 25.8106C73.2338 26.3365 74.1702 26.5994 75.1867 26.5994Z" fill="#4F3422"/>
<path d="M90.5604 31.3529C89.8648 31.3529 89.2696 31.1102 88.7747 30.6247C88.2932 30.1258 88.0524 29.519 88.0524 28.8043C88.0524 28.1165 88.2932 27.5232 88.7747 27.0242C89.2696 26.5253 89.8648 26.2758 90.5604 26.2758C91.2559 26.2758 91.8512 26.5253 92.3461 27.0242C92.841 27.5232 93.0885 28.1165 93.0885 28.8043C93.0885 29.519 92.841 30.1258 92.3461 30.6247C91.8512 31.1102 91.2559 31.3529 90.5604 31.3529Z" fill="#4F3422"/>
<path d="M110.916 10.5993H115.812V30.827H110.916L110.695 28.3188C110.147 29.2223 109.418 29.9572 108.509 30.5236C107.612 31.0765 106.549 31.3529 105.318 31.3529C103.834 31.3529 102.443 31.0698 101.145 30.5034C99.8476 29.937 98.7039 29.1549 97.7141 28.157C96.7377 27.1591 95.9686 26.0061 95.4068 24.698C94.8584 23.39 94.5841 21.9875 94.5841 20.4907C94.5841 19.0478 94.845 17.6925 95.3666 16.4249C95.9017 15.1573 96.644 14.0448 97.5937 13.0873C98.5434 12.1299 99.6403 11.3815 100.884 10.842C102.128 10.3026 103.466 10.0329 104.897 10.0329C106.221 10.0329 107.405 10.3296 108.448 10.923C109.505 11.5163 110.401 12.2715 111.137 13.1885L110.916 10.5993ZM105.198 26.5994C106.241 26.5994 107.164 26.3365 107.967 25.8106C108.769 25.2846 109.398 24.5767 109.853 23.6866C110.308 22.7831 110.535 21.792 110.535 20.7132C110.535 19.6209 110.308 18.6297 109.853 17.7397C109.398 16.8362 108.763 16.1215 107.947 15.5956C107.144 15.0696 106.228 14.8067 105.198 14.8067C104.168 14.8067 103.225 15.0764 102.369 15.6158C101.526 16.1417 100.851 16.8497 100.342 17.7397C99.8476 18.6297 99.6001 19.6209 99.6001 20.7132C99.6001 21.8055 99.8543 22.7966 100.363 23.6866C100.871 24.5767 101.546 25.2846 102.389 25.8106C103.245 26.3365 104.181 26.5994 105.198 26.5994Z" fill="#4F3422"/>
<path d="M118.004 10.5993H122.9V30.827H118.004V10.5993ZM120.492 7.98994C119.77 7.98994 119.161 7.75395 118.666 7.28197C118.171 6.79651 117.924 6.18968 117.924 5.46148C117.924 4.74677 118.171 4.14668 118.666 3.66121C119.161 3.17575 119.763 2.93302 120.472 2.93302C121.181 2.93302 121.776 3.17575 122.258 3.66121C122.753 4.14668 123 4.74677 123 5.46148C123 6.18968 122.759 6.79651 122.278 7.28197C121.796 7.75395 121.201 7.98994 120.492 7.98994Z" fill="#4F3422"/>
</svg>
