<svg width="20" height="20" viewBox="0 0 20 20" fill="none" xmlns="http://www.w3.org/2000/svg">
<path d="M9.99996 12.2222C12.1477 12.2222 13.8888 13.9633 13.8888 16.1111C13.8888 18.2588 12.1477 20 9.99996 20C7.8522 20 6.11109 18.2588 6.11109 16.1111C6.11109 13.9633 7.8522 12.2222 9.99996 12.2222Z" fill="#FFF0EB"/>
<path d="M3.88885 6.11105C6.03662 6.11105 7.77772 7.85215 7.77772 9.99992C7.77772 12.1477 6.03662 13.8888 3.88886 13.8888C1.74109 13.8888 -1.36963e-05 12.1477 -1.37432e-05 9.99992C-1.37901e-05 7.85215 1.74109 6.11105 3.88885 6.11105Z" fill="#FFF0EB"/>
<path d="M9.99996 8.49939e-08C12.1477 3.80531e-08 13.8888 1.74111 13.8888 3.88887C13.8888 6.03663 12.1477 7.77774 9.99996 7.77774C7.8522 7.77774 6.11109 6.03663 6.11109 3.88887C6.11109 1.74111 7.8522 1.31935e-07 9.99996 8.49939e-08Z" fill="#FFF0EB"/>
<path d="M16.111 6.11105C18.2588 6.11105 19.9999 7.85215 19.9999 9.99992C19.9999 12.1477 18.2588 13.8888 16.111 13.8888C13.9632 13.8888 12.2221 12.1477 12.2221 9.99992C12.2221 7.85215 13.9632 6.11105 16.111 6.11105Z" fill="#FFF0EB"/>
</svg>
