<svg width="56" height="53" viewBox="0 0 56 53" fill="none" xmlns="http://www.w3.org/2000/svg">
<path fill-rule="evenodd" clip-rule="evenodd" d="M45.9461 18.8934C47.4145 19.0867 48.8304 19.5673 50.113 20.3078C51.3957 21.0484 52.5199 22.0343 53.4215 23.2093C54.3231 24.3843 54.9845 25.7254 55.3678 27.1559C55.7511 28.5865 55.8489 30.0786 55.6556 31.547C55.4623 33.0154 54.9816 34.4313 54.2411 35.7139C53.203 37.512 50.9038 38.1281 49.1057 37.09C47.3077 36.0518 46.6916 33.7527 47.7297 31.9546C47.9766 31.5271 48.1368 31.0551 48.2012 30.5656C48.2656 30.0762 48.233 29.5788 48.1053 29.1019C47.9775 28.6251 47.757 28.178 47.4565 27.7864C47.156 27.3947 46.7812 27.0661 46.3537 26.8192C45.9262 26.5724 45.4542 26.4122 44.9647 26.3477C44.4753 26.2833 43.9779 26.3159 43.501 26.4437C43.0242 26.5714 42.5771 26.7919 42.1855 27.0924C41.7938 27.393 41.4652 27.7677 41.2183 28.1952C40.1802 29.9933 37.881 30.6094 36.083 29.5713C34.2849 28.5331 33.6688 26.234 34.7069 24.4359C35.4475 23.1533 36.4334 22.029 37.6084 21.1274C38.7834 20.2258 40.1245 19.5645 41.555 19.1812C42.9856 18.7978 44.4777 18.7 45.9461 18.8934Z" fill="#3D4A26"/>
<path fill-rule="evenodd" clip-rule="evenodd" d="M38.5058 41.0771C39.974 42.5452 39.974 44.9255 38.5058 46.3936C34.9948 49.9047 30.4233 52.1591 25.5004 52.8072C20.5775 53.4553 15.5784 52.4609 11.2782 49.9782C6.97808 47.4955 3.61731 43.6633 1.71714 39.0759C-0.183025 34.4885 -0.516394 29.4023 0.768739 24.6061C1.30611 22.6006 3.3675 21.4105 5.37298 21.9478C7.37847 22.4852 8.56862 24.5466 8.03125 26.5521C7.17449 29.7495 7.39674 33.1404 8.66352 36.1986C9.93029 39.2569 12.1708 41.8117 15.0376 43.4668C17.9043 45.122 21.2371 45.7849 24.519 45.3528C27.801 44.9207 30.8486 43.4178 33.1893 41.0771C34.6574 39.609 37.0377 39.609 38.5058 41.0771Z" fill="#3D4A26"/>
<path fill-rule="evenodd" clip-rule="evenodd" d="M13.389 0.0965956C14.8574 0.289912 16.2734 0.770555 17.556 1.51108C18.8386 2.25161 19.9628 3.23752 20.8644 4.41252C21.7661 5.58752 22.4274 6.9286 22.8107 8.35919C23.194 9.78978 23.2918 11.2819 23.0985 12.7502C22.9052 14.2186 22.4246 15.6346 21.684 16.9172C20.6459 18.7153 18.3467 19.3313 16.5487 18.2932C14.7506 17.2551 14.1345 14.9559 15.1727 13.1578C15.4195 12.7303 15.5797 12.2583 15.6441 11.7689C15.7086 11.2794 15.676 10.782 15.5482 10.3052C15.4204 9.82831 15.2 9.38128 14.8995 8.98962C14.5989 8.59795 14.2242 8.26931 13.7966 8.02247C13.3691 7.77563 12.8971 7.61541 12.4077 7.55097C11.9182 7.48653 11.4208 7.51913 10.944 7.64691C10.4671 7.77468 10.0201 7.99513 9.62841 8.29567C9.23675 8.59621 8.90811 8.97094 8.66127 9.39849C7.62315 11.1966 5.32397 11.8126 3.5259 10.7745C1.72783 9.73639 1.11176 7.43721 2.14988 5.63914C2.89041 4.35651 3.87632 3.23229 5.05132 2.33068C6.22632 1.42907 7.56739 0.767726 8.99798 0.384401C10.4286 0.0010755 11.9207 -0.0967211 13.389 0.0965956Z" fill="#3D4A26"/>
</svg>
