<svg width="48" height="48" viewBox="0 0 48 48" fill="none" xmlns="http://www.w3.org/2000/svg">
<path d="M37.523 13.6237C36.7253 16.6005 34.9677 19.231 32.5227 21.1071C30.0777 22.9833 27.0819 24.0002 24 24.0002C20.9181 24.0002 17.9224 22.9833 15.4774 21.1071C13.0323 19.231 11.2747 16.6005 10.4771 13.6237L14.3408 12.5884C14.9105 14.7147 16.166 16.5936 17.9124 17.9337C19.6588 19.2738 21.7987 20.0002 24 20.0002C26.2014 20.0002 28.3412 19.2738 30.0876 17.9337C31.8341 16.5936 33.0895 14.7147 33.6593 12.5884L37.523 13.6237Z" fill="#C9C7C5"/>
<path d="M37.523 25.6237C36.7253 28.6005 34.9677 31.231 32.5227 33.1071C30.0777 34.9833 27.0819 36.0002 24 36.0002C20.9181 36.0002 17.9224 34.9833 15.4774 33.1071C13.0323 31.231 11.2747 28.6005 10.4771 25.6237L14.3408 24.5884C14.9105 26.7147 16.166 28.5936 17.9124 29.9337C19.6588 31.2738 21.7987 32.0002 24 32.0002C26.2014 32.0002 28.3412 31.2738 30.0876 29.9337C31.8341 28.5936 33.0895 26.7147 33.6593 24.5884L37.523 25.6237Z" fill="#C9C7C5"/>
</svg>
