<svg width="24" height="24" viewBox="0 0 24 24" fill="none" xmlns="http://www.w3.org/2000/svg">
<path d="M10 11.9995C10 10.8949 10.8954 9.99951 12 9.99951C13.1046 9.99951 14 10.8949 14 11.9995C14 13.1041 13.1046 13.9995 12 13.9995C10.8954 13.9995 10 13.1041 10 11.9995Z" fill="#704A33"/>
<path fill-rule="evenodd" clip-rule="evenodd" d="M2 11.9995C2 8.13352 5.13401 4.99951 9 4.99951H15C18.866 4.99951 22 8.13352 22 11.9995C22 15.8655 18.866 18.9995 15 18.9995H9C5.13401 18.9995 2 15.8655 2 11.9995ZM12 7.99951C9.79086 7.99951 8 9.79037 8 11.9995C8 14.2087 9.79086 15.9995 12 15.9995C14.2091 15.9995 16 14.2087 16 11.9995C16 9.79037 14.2091 7.99951 12 7.99951Z" fill="#704A33"/>
</svg>
