<svg width="25" height="25" viewBox="0 0 25 25" fill="none" xmlns="http://www.w3.org/2000/svg">
<path d="M9.50299 21.6053L9.51423 18.4219C9.51706 17.6152 10.1753 16.9622 10.9879 16.96L13.9713 16.9705C14.7874 16.9734 15.4467 17.6326 15.4438 18.4429L15.4326 21.617C15.4302 22.3167 15.9967 22.8873 16.7014 22.8949L18.7368 22.9021C19.6874 22.9079 20.6013 22.5379 21.2767 21.8738C21.9521 21.2097 22.3336 20.306 22.3369 19.3623L22.3688 10.3195C22.3715 9.55715 22.0337 8.8328 21.4464 8.3416L14.551 2.82696C13.3456 1.86239 11.6192 1.88732 10.4427 2.88628L3.65752 8.2788C3.03898 8.75133 2.66774 9.47532 2.64678 10.2499L2.61489 19.2834C2.60795 21.2505 4.20851 22.8508 6.18983 22.8578L8.17877 22.8648C8.51806 22.8685 8.84479 22.7375 9.08643 22.501C9.32807 22.2646 9.46463 21.9421 9.46581 21.6052L9.50299 21.6053Z" fill="#407CE2"/>
</svg>
