<svg width="15" height="14" viewBox="0 0 15 14" fill="none" xmlns="http://www.w3.org/2000/svg">
<path d="M13.125 1.02091H12C12 0.750144 11.8815 0.490473 11.6705 0.299016C11.4595 0.107559 11.1734 0 10.875 0C10.5766 0 10.2905 0.107559 10.0795 0.299016C9.86853 0.490473 9.75 0.750144 9.75 1.02091H5.25C5.25 0.750144 5.13147 0.490473 4.9205 0.299016C4.70952 0.107559 4.42337 0 4.125 0C3.82663 0 3.54048 0.107559 3.3295 0.299016C3.11853 0.490473 3 0.750144 3 1.02091H1.875C1.37772 1.02091 0.900806 1.20017 0.549175 1.51927C0.197544 1.83836 0 2.27115 0 2.72241L0 11.4001C0 11.9868 0.256807 12.5494 0.713927 12.9642C1.17105 13.379 1.79103 13.6121 2.4375 13.6121H12.5625C13.209 13.6121 13.829 13.379 14.2861 12.9642C14.7432 12.5494 15 11.9868 15 11.4001V2.72241C15 2.27115 14.8025 1.83836 14.4508 1.51927C14.0992 1.20017 13.6223 1.02091 13.125 1.02091ZM10.5 1.02091C10.5 0.930652 10.5395 0.844094 10.6098 0.780276C10.6802 0.716457 10.7755 0.680603 10.875 0.680603C10.9745 0.680603 11.0698 0.716457 11.1402 0.780276C11.2105 0.844094 11.25 0.930652 11.25 1.02091V1.70151C11.25 1.79176 11.2105 1.87832 11.1402 1.94214C11.0698 2.00596 10.9745 2.04181 10.875 2.04181C10.7755 2.04181 10.6802 2.00596 10.6098 1.94214C10.5395 1.87832 10.5 1.79176 10.5 1.70151V1.02091ZM3.75 1.02091C3.75 0.930652 3.78951 0.844095 3.85984 0.780276C3.93016 0.716457 4.02554 0.680603 4.125 0.680603C4.22446 0.680603 4.31984 0.716457 4.39016 0.780276C4.46049 0.844095 4.5 0.930652 4.5 1.02091V1.70151C4.5 1.79176 4.46049 1.87832 4.39016 1.94214C4.31984 2.00596 4.22446 2.04181 4.125 2.04181C4.02554 2.04181 3.93016 2.00596 3.85984 1.94214C3.78951 1.87832 3.75 1.79176 3.75 1.70151V1.02091ZM0.75 2.72241C0.749887 2.55524 0.795098 2.39061 0.881646 2.24303C0.968195 2.09546 1.09342 1.96947 1.24629 1.87618C1.43184 1.76211 1.65088 1.70126 1.875 1.70151H3C3 1.97227 3.11853 2.23194 3.3295 2.4234C3.54048 2.61485 3.82663 2.72241 4.125 2.72241C4.42337 2.72241 4.70952 2.61485 4.9205 2.4234C5.13147 2.23194 5.25 1.97227 5.25 1.70151H9.75C9.75 1.97227 9.86853 2.23194 10.0795 2.4234C10.2905 2.61485 10.5766 2.72241 10.875 2.72241C11.1734 2.72241 11.4595 2.61485 11.6705 2.4234C11.8815 2.23194 12 1.97227 12 1.70151H13.125C13.4034 1.70174 13.6719 1.79555 13.8785 1.96484C14.0852 2.13413 14.2155 2.36689 14.2441 2.6182C14.248 2.65282 14.25 2.68761 14.25 2.72241V4.08362H0.75V2.72241ZM12.5625 12.9315H2.4375C2.10554 12.931 1.78113 12.8416 1.50491 12.6745C1.2287 12.5074 1.01297 12.2701 0.884766 11.9922C1.18149 12.1612 1.52469 12.2508 1.875 12.2509H13.125C13.4753 12.2508 13.8185 12.1612 14.1152 11.9922C13.987 12.2701 13.7713 12.5074 13.4951 12.6745C13.2189 12.8416 12.8945 12.931 12.5625 12.9315ZM14.25 10.5494C14.2497 10.82 14.1311 11.0795 13.9202 11.2709C13.7092 11.4623 13.4233 11.57 13.125 11.5703H1.875C1.57673 11.57 1.29076 11.4623 1.07985 11.2709C0.868936 11.0795 0.75031 10.82 0.75 10.5494V4.76422H14.25V10.5494Z" fill="#F2F5FE"/>
</svg>
