<svg width="259" height="280" viewBox="0 0 259 280" fill="none" xmlns="http://www.w3.org/2000/svg">
<path d="M73.327 71.8673C71.3435 75.5256 67.0173 77.2009 62.9476 78.0044C58.8779 78.8078 54.5688 79.0984 50.9437 81.1498C48.0026 82.8251 45.7283 85.6457 44.7195 88.8596C44.5314 89.475 44.3775 90.1417 44.5656 90.74C45.164 92.6888 48.1052 92.3127 49.7638 93.4752C51.508 94.706 51.3712 97.5095 50.0887 99.2361C48.8063 100.946 46.7543 101.886 44.8563 102.86C42.9582 103.852 40.9918 105.1 40.1881 107.083C39.2305 109.459 40.2907 112.331 42.2571 113.989C44.2236 115.63 46.9082 116.228 49.4731 116.194C51.1831 116.177 52.9272 115.904 54.4662 115.134C57.5612 113.562 59.2541 110.245 61.2718 107.425C63.2725 104.604 66.3846 101.886 69.7874 102.518C70.1123 102.587 70.4543 102.689 70.6082 102.98C70.7963 103.339 70.5911 103.783 70.5569 104.194C70.4885 105.168 71.5145 105.971 72.4891 105.971C73.4809 105.971 74.353 105.373 75.0712 104.689C77.0718 102.758 78.1491 99.9028 77.9268 97.1334C77.7216 94.6376 76.9521 91.3041 79.2435 90.2955C79.859 90.022 80.5772 90.0391 81.2441 89.9536C85.6558 89.4066 88.4088 83.5773 86.032 79.8164C84.5101 77.406 81.6716 76.2436 79.0212 75.235L73.327 71.8673Z" fill="#251404"/>
<path d="M76.3191 92.911C75.8062 94.1761 75.5839 95.4411 75.8233 96.8086C76.1823 98.8942 77.1057 99.7148 75.5497 101.937C73.0873 105.476 69.1544 105.578 65.2899 105.664C60.0575 105.766 57.4754 109.578 57.5267 114.587C57.5609 118.16 59.5103 123.528 64.0759 122.246C65.3754 121.887 66.7434 120.81 66.846 119.374C66.9828 117.271 64.093 116.519 62.4514 116.399C61.4425 116.331 61.4596 117.887 62.4514 117.955C65.3412 118.177 65.5122 120.981 62.7421 120.844C61.4938 120.793 60.5705 119.87 60.0233 118.844C59.117 117.169 58.9631 115.032 59.1512 113.168C59.4077 110.775 60.4508 108.262 62.9302 107.476C65.0505 106.792 67.4445 107.442 69.6161 107.1C72.4546 106.655 75.1393 105.117 76.8663 102.809C77.6358 101.766 78.3027 100.604 78.1659 99.2532C77.9436 96.9796 76.8321 95.6804 77.8239 93.3042C78.2001 92.3982 76.6953 91.9879 76.3191 92.911Z" fill="#251404"/>
<path d="M69.7363 76.3804C60.7932 76.5855 52.0554 79.4916 44.8907 84.8765C42.6164 86.586 39.3675 88.9793 41.4536 92.0734C41.8982 92.723 42.5309 93.2359 43.1294 93.7316C43.574 94.0906 44.2409 94.3812 44.5145 94.8941C44.8565 95.5779 44.3264 97.9882 43.6595 98.4327C42.8729 98.9455 41.4023 99.0823 40.4961 99.3387C40.0002 99.4755 39.3675 99.7832 38.8545 99.8003C38.2047 100.091 37.6233 99.8516 37.1104 99.1165C35.5543 98.672 35.3491 98.2959 36.4948 97.9882C37.401 97.5438 36.6145 96.1933 35.7082 96.6377C34.2376 97.3557 33.1604 98.0908 34.0324 99.8857C34.7677 101.39 36.4264 101.766 37.9824 101.578C40.2567 101.288 43.4201 100.535 45.4378 99.39C46.8571 98.5865 47.4727 97.1506 46.8742 95.5949C46.5664 94.7915 45.9679 94.1077 45.3694 93.5265C45.0103 93.1846 44.5487 92.8769 44.1725 92.5521C43.8134 92.2786 43.4714 91.9879 43.1465 91.6631C43.1807 90.5349 43.2149 89.3895 43.2491 88.2613C43.9502 86.945 46.1902 85.8338 47.4214 84.9962C48.5842 84.2098 49.7982 83.4747 51.0465 82.808C56.8261 79.7139 63.2214 78.0899 69.7534 77.9531C70.7452 77.9189 70.7452 76.3633 69.7363 76.3804Z" fill="#251404"/>
<path d="M179.31 33.2501C177.395 30.9764 174.129 30.1901 171.308 30.9594C168.127 31.8312 165.614 34.7715 165.904 38.1563C166.127 40.8231 170.299 40.7547 170.077 38.0708C169.906 36.0023 171.923 34.5835 173.992 34.8399C176.284 35.1305 177.344 37.3186 177.036 39.2503C176.626 41.7633 174.3 42.8061 171.906 42.8573C170.333 42.8915 168.674 43.0967 167.546 44.3104C166.246 45.7122 165.904 48.0713 165.494 49.8662C164.895 52.4817 168.931 53.5074 169.529 50.8919C169.735 50.003 169.957 49.1311 170.196 48.2593C170.333 47.7635 170.384 47.2507 170.795 47.0968C171.291 46.9259 171.906 47.0285 172.419 47.0114C173.206 46.9943 174.009 46.9088 174.779 46.7037C177.652 45.9686 180.08 43.7463 180.918 40.8914C181.704 38.293 181.072 35.3356 179.31 33.2501Z" fill="#C2B1FF"/>
<path d="M167.015 54.4135C164.399 53.7639 163.373 57.8153 165.989 58.4478C168.589 59.0974 169.615 55.0631 167.015 54.4135Z" fill="#C2B1FF"/>
<path d="M8.43412 159.324C5.4759 159.017 2.58607 160.726 1.08131 163.222C-0.611542 166.06 -0.372148 169.906 2.19278 172.162C4.19343 173.923 7.15166 170.983 5.13391 169.205C3.57785 167.837 4.03954 165.41 5.71529 164.162C7.57914 162.777 9.85338 163.615 10.9649 165.222C12.4012 167.307 11.4778 169.684 9.78499 171.376C8.67352 172.487 7.63044 173.786 7.66464 175.445C7.69884 177.359 9.101 179.291 10.0415 180.864C11.4265 183.154 15.0517 181.103 13.6666 178.795C13.2049 178.026 12.7432 177.24 12.3157 176.436C12.0763 175.975 11.7343 175.581 11.9395 175.188C12.1789 174.727 12.6919 174.368 13.051 173.992C13.5982 173.427 14.1283 172.812 14.5387 172.145C16.0947 169.632 16.2999 166.35 14.9149 163.7C13.6495 161.307 11.1359 159.598 8.43412 159.324Z" fill="#C2B1FF"/>
<path d="M14.2654 183.086C11.9398 184.437 14.0089 188.061 16.3344 186.71C18.66 185.36 16.5909 181.753 14.2654 183.086Z" fill="#C2B1FF"/>
<path d="M255.266 84.945C252.787 83.3039 249.435 83.4406 246.939 84.9791C244.117 86.7057 242.544 90.2273 243.741 93.3898C244.698 95.8856 248.683 94.6719 247.725 92.1419C246.99 90.2102 248.529 88.2784 250.598 87.9536C252.889 87.5947 254.514 89.4067 254.753 91.3384C255.061 93.8684 253.111 95.5095 250.837 96.2275C249.332 96.6891 247.811 97.3558 247.058 98.843C246.186 100.553 246.528 102.912 246.631 104.758C246.785 107.442 250.957 107.305 250.803 104.621C250.752 103.715 250.718 102.809 250.718 101.903C250.718 101.39 250.615 100.877 250.974 100.621C251.401 100.33 252.017 100.245 252.513 100.091C253.265 99.8516 254.018 99.5439 254.702 99.1507C257.267 97.6464 258.959 94.8428 258.977 91.8684C258.942 89.1332 257.523 86.4493 255.266 84.945Z" fill="#C2B1FF"/>
<path d="M249.332 108.69C246.648 108.792 246.785 112.963 249.469 112.861C252.154 112.758 252.017 108.587 249.332 108.69Z" fill="#C2B1FF"/>
<path d="M75.4131 266.526C61.0324 281.21 35.1608 277.159 24.3881 258.406C15.3082 242.61 18.6255 220.524 24.1658 203.993C32.2197 179.975 47.5751 158.743 63.6828 138.947C79.1237 119.938 92.7521 108.502 114.503 95.9881C136.493 83.3379 159.15 75.9701 184.577 80.8934C217.801 87.321 231.498 115.904 245.366 144.178C259.319 172.658 263.286 207.087 253.881 237.721C249.059 253.431 238.885 263.774 223.991 272.099C210.978 279.364 194.306 279.227 180.644 273.483C166.964 267.723 149.044 262.936 143.384 232.849L75.4131 266.526Z" fill="#736B66"/>
<path d="M154.721 263.107C160.039 267.09 166.331 269.517 172.179 272.577C176.813 275.005 181.909 276.595 187.005 277.655C197.965 279.928 210.619 280.168 220.503 274.184C221.358 273.654 220.571 272.304 219.716 272.834C209.815 278.834 196.922 278.355 186.013 275.843C181.139 274.714 176.403 273.09 172.008 270.697C166.485 267.688 160.586 265.551 155.524 261.756C154.704 261.141 153.917 262.509 154.721 263.107Z" fill="#251404"/>
<path d="M198.205 236.439C186.235 257.705 166.947 269.552 155.114 262.902C143.281 256.252 143.384 233.618 155.354 212.352C167.323 191.086 186.612 179.24 198.445 185.89C210.26 192.539 210.158 215.173 198.205 236.439Z" fill="#251404"/>
<path d="M91.6917 246.645C79.722 267.911 60.4337 279.757 48.6008 273.107C36.7679 266.457 36.8705 243.824 48.8402 222.558C60.8099 201.292 80.0982 189.445 91.9311 196.095C103.747 202.745 103.644 225.379 91.6917 246.645Z" fill="#251404"/>
<path d="M183.944 215.618C182.593 215.994 181.824 214.113 183.038 213.447C184.012 212.899 184.987 212.335 185.927 211.754C185.158 209.532 184.269 207.344 183.277 205.207C182.371 205.497 181.328 205.737 180.233 205.925C177.463 206.386 176.095 202.694 178.506 201.275C179.173 200.882 179.891 200.454 180.627 200.027C179.036 197.189 177.258 194.471 175.309 191.856L172.282 194.129C173.376 193.309 174.368 192.54 175.257 191.787C173.462 189.411 171.53 187.121 169.478 184.984C165.699 187.172 161.372 188.676 157.149 189.189C154.618 189.497 153.592 186.095 155.866 184.932C158.79 183.445 162.245 182.334 165.391 181.069C163.134 179.069 160.74 177.223 158.243 175.547C131.346 184.18 119.632 196.677 78.7645 199.583C59.4249 200.95 43.0778 238.559 50.328 254.782C52.8074 260.32 57.3559 263.209 62.9987 264.645C75.584 267.876 89.0072 266.628 101.524 263.158C114.058 259.688 125.857 254.064 137.604 248.457C148.069 243.465 158.551 238.473 169.016 233.482C175.941 230.182 183.123 226.644 188.544 221.396C188.099 219.088 187.518 216.797 186.834 214.558C185.756 215.019 184.765 215.378 183.944 215.618Z" fill="#ED7E1C"/>
<path d="M163.219 102.621L116.726 68.4143C111.955 72.2435 107.167 76.0556 102.293 79.731C102.738 92.3299 105.799 107.613 116.572 116.587L124.301 104.159C124.301 104.159 131.311 115.681 138.22 127.015C144.683 137.614 159.782 138.417 167.34 128.554C167.443 128.417 167.545 128.297 167.631 128.161C173.872 119.989 171.872 108.228 163.219 102.621Z" fill="#ED7E1C"/>
<path d="M136.322 74.1066C136.544 78.2606 133.346 81.8164 129.174 82.0215C125.019 82.2437 121.462 79.047 121.257 74.8759C121.035 70.7218 124.232 67.1661 128.405 66.961C132.56 66.7388 136.099 69.9355 136.322 74.1066Z" fill="#ED7E1C"/>
<path d="M128.422 78.0386C129.192 75.3889 129.961 72.7221 130.782 70.0895C131.073 69.1322 129.568 68.7048 129.277 69.6792C128.456 72.3289 127.687 74.9786 126.917 77.6283C126.627 78.6027 128.149 79.013 128.422 78.0386Z" fill="#251404"/>
<path d="M124.283 104.176L138.613 127.425L129.345 94.6205L124.283 104.176Z" fill="#251404"/>
<path d="M102.704 82.9619C102.089 87.7655 101.798 92.8085 102.123 97.6463C102.157 98.1592 102.79 98.7233 103.303 98.313C104.825 97.1335 106.364 95.954 107.885 94.7744C108.672 94.1761 107.885 92.8085 107.099 93.4239C105.577 94.6035 104.038 95.783 102.516 96.9625C102.909 97.1848 103.303 97.407 103.696 97.6463C103.388 92.8085 103.679 87.7655 104.277 82.9619C104.38 81.9533 102.824 81.9704 102.704 82.9619Z" fill="#251404"/>
<path d="M111.647 86.0218C113.87 85.8167 116.093 85.6287 118.316 85.4235C119.307 85.3381 119.324 83.7653 118.316 83.8508C116.093 84.0559 113.87 84.244 111.647 84.4491C110.655 84.5517 110.638 86.1073 111.647 86.0218Z" fill="#251404"/>
<path d="M109.92 81.0643C112.211 79.2864 114.349 77.3376 116.332 75.235C117.016 74.4999 115.922 73.3887 115.221 74.1238C113.237 76.2265 111.1 78.1753 108.809 79.9531C108.022 80.5686 109.133 81.6797 109.92 81.0643Z" fill="#251404"/>
<path d="M113.75 101.339C113.853 101.322 113.733 101.322 113.699 101.322C113.596 101.287 113.562 101.253 113.494 101.185C113.408 101.099 113.511 101.253 113.477 101.151C113.46 101.082 113.46 101.082 113.477 101.151C113.477 101.116 113.46 101.082 113.46 101.048C113.46 100.843 113.648 100.672 113.836 100.638C113.904 100.621 113.973 100.621 114.024 100.655C114.075 100.672 114.178 100.774 114.092 100.689C114.126 100.74 114.161 100.774 114.178 100.843C114.178 100.877 114.195 100.911 114.195 100.945C114.109 101.099 114.024 101.253 113.921 101.39C113.75 101.527 113.494 101.475 113.357 101.322C113.254 101.202 113.22 101.048 113.271 100.877C113.357 100.774 113.442 100.655 113.528 100.552C113.579 100.518 113.682 100.501 113.733 100.501C113.767 100.501 113.802 100.518 113.836 100.518C113.767 100.501 113.767 100.501 113.836 100.518C113.921 100.535 113.973 100.604 114.007 100.706C114.109 100.894 114.144 100.928 114.126 100.826C114.041 100.416 113.545 100.176 113.169 100.279C112.741 100.398 112.536 100.826 112.622 101.236C112.861 102.416 114.81 102.262 114.81 101.031C114.81 99.8343 112.947 99.4582 112.639 100.689C112.365 101.783 113.819 102.723 114.639 101.886C115.358 101.185 114.776 99.6804 113.716 99.8001C113.306 99.8514 112.912 100.125 112.93 100.586C112.998 100.945 113.323 101.39 113.75 101.339Z" fill="#251404"/>
<path d="M171.906 247.226C153.524 242.525 106.483 202.044 89.64 173.599C84.664 165.205 80.5772 156.589 78.5253 147.05C77.448 142.059 79.2093 136.657 82.4582 136.452C80.5772 132.725 82.6463 128.605 86.2714 126.537C87.6222 125.75 89.5716 127.494 90.4437 126.195C91.1618 125.118 91.1447 123.733 91.0934 122.434C90.8027 115.921 92.1878 105.784 95.8642 100.091C97.4203 97.6806 101.216 98.7234 101.285 101.595C101.336 103.664 101.08 105.852 100.806 107.014C99.1644 114.092 100.447 120.092 101.011 127.357C101.404 132.383 102.909 136.4 105.543 139.922C107.68 142.777 112.28 141.153 112.075 137.58C111.921 134.811 110.861 131.904 109.39 129.785C107.971 127.767 106.449 124.947 105.611 122.126C104.568 118.57 106.808 114.963 109.8 117.134C127.601 130.075 128.456 138.691 138.596 148.298C154.977 163.803 171.513 179.428 190.681 191.309C194.375 193.6 198.325 195.907 200.531 199.651C204.994 207.207 201.471 220.302 197.401 228.08C190.049 242.2 179.926 249.26 171.906 247.226Z" fill="#ED7E1C"/>
<path d="M172.111 246.457C165.733 244.764 159.851 240.935 154.413 237.294C146.479 231.977 139.006 225.977 131.825 219.703C116.999 206.745 102.396 192.3 91.7774 175.599C87.9813 169.633 84.6469 163.29 82.1674 156.658C80.9021 153.29 79.688 149.7 79.1408 146.127C78.7133 143.307 78.9185 137.734 82.6462 137.187C83.1934 137.101 83.296 136.434 83.1079 136.041C81.7571 132.947 83.2447 128.195 86.8527 127.374C88.3062 127.049 89.8964 128.007 91.025 126.639C92.222 125.203 91.8287 122.844 91.7945 121.152C91.7603 118.57 91.9484 115.972 92.3246 113.425C92.6495 111.151 93.1112 108.878 93.778 106.672C94.3594 104.758 95.5051 100.125 97.7793 99.578C101.541 98.672 100.361 104.877 100.019 106.792C99.4893 109.647 99.1302 112.399 99.1986 115.305C99.3012 120.639 99.6432 126.519 100.857 131.716C101.61 134.947 103.422 140.571 106.876 141.853C109.561 142.845 112.519 140.999 112.827 138.161C113.34 133.169 109.493 129.22 107.543 125.032C106.842 123.511 106.021 121.699 106.158 119.989C106.227 119.015 106.483 117.613 107.663 117.288C108.398 117.083 109.664 118.075 110.211 118.399C112.878 120.006 115.358 122.417 117.632 124.536C120.847 127.528 123.754 130.827 126.387 134.349C128.49 137.17 130.439 140.076 132.611 142.845C135.467 146.469 138.801 149.563 142.136 152.726C150.805 160.897 159.56 169.017 168.811 176.522C173.24 180.112 177.771 183.565 182.439 186.83C187.227 190.163 192.87 192.83 197.162 196.796C206.156 205.121 200.753 220.695 195.64 229.704C191.228 237.448 182.525 248.884 172.111 246.457C171.136 246.234 170.709 247.739 171.701 247.961C180.045 249.893 187.586 243.482 192.374 237.396C198.769 229.276 203.608 218.524 203.386 208.01C203.284 203.104 201.693 198.711 197.966 195.394C193.571 191.497 188.048 188.796 183.226 185.445C171.974 177.633 161.595 168.607 151.506 159.324C143.777 152.196 136.202 145.341 130.063 136.776C127.533 133.238 124.916 129.75 121.924 126.588C120.146 124.707 118.248 122.93 116.281 121.237C114.298 119.545 111.835 116.946 109.373 115.989C105.389 114.451 104.106 119.391 104.841 122.314C105.508 124.981 106.979 127.562 108.484 129.836C109.954 132.075 112.964 137.546 110.313 139.853C107.304 142.435 104.893 137.819 103.833 135.563C102.328 132.315 101.935 128.913 101.61 125.391C101.319 122.331 100.926 119.288 100.806 116.211C100.669 112.707 101.233 109.442 101.764 105.989C102.071 104.006 102.619 101.202 101.319 99.4584C100.31 98.125 98.4291 97.6121 96.8902 98.2446C95.0947 98.9797 94.2397 101.185 93.5387 102.843C92.3588 105.612 91.5893 108.553 91.0763 111.51C90.5975 114.262 90.3068 117.049 90.2555 119.835C90.2384 120.998 90.7172 122.981 90.2897 124.007C90.0332 124.314 89.7767 124.605 89.5203 124.913C89.2638 125.75 88.8021 126.007 88.1694 125.682C87.6564 125.767 87.1434 125.494 86.5962 125.613C84.4588 126.058 82.441 128.622 81.6203 130.503C80.6969 132.656 80.8508 134.759 81.7742 136.879C81.9281 136.503 82.0819 136.11 82.2358 135.734C77.619 136.417 77.0547 142.93 77.6019 146.503C78.6449 153.187 81.4664 159.786 84.4588 165.82C89.1612 175.274 95.1973 183.838 101.986 191.907C115.888 208.404 132.115 223.43 149.676 235.96C156.328 240.713 163.681 245.91 171.701 248.029C172.675 248.234 173.086 246.713 172.111 246.457Z" fill="#251404"/>
<path d="M89.0069 126.707C89.6053 134.708 91.7941 142.212 95.8809 149.136C96.3939 150.008 97.7447 149.221 97.2317 148.349C93.2817 141.665 91.1614 134.434 90.58 126.707C90.5116 125.699 88.9385 125.699 89.0069 126.707Z" fill="#251404"/>
<path d="M81.7399 136.674C82.1503 143.563 84.0141 150.145 87.263 156.23C87.7418 157.119 89.0927 156.333 88.6139 155.444C85.5018 149.598 83.7063 143.29 83.313 136.674C83.2446 135.682 81.6715 135.682 81.7399 136.674Z" fill="#251404"/>
<path d="M95.5219 105.219C97.7106 104.365 99.1812 102.228 99.0102 99.8517C98.9418 98.8602 97.3686 98.8431 97.4541 99.8517C97.5738 101.493 96.6846 103.1 95.1115 103.715C94.171 104.074 94.5814 105.596 95.5219 105.219Z" fill="#251404"/>
<path d="M109.578 117.169C108.877 120.468 111.202 123.648 114.519 124.092C115.511 124.229 115.511 122.656 114.519 122.519C112.228 122.212 110.621 119.784 111.082 117.579C111.288 116.604 109.783 116.177 109.578 117.169Z" fill="#251404"/>
<path d="M103.439 150.042C104.687 148.965 105.919 147.871 107.167 146.794C107.919 146.127 106.808 145.033 106.055 145.683C104.807 146.76 103.576 147.854 102.328 148.931C101.575 149.597 102.687 150.692 103.439 150.042Z" fill="#736B66"/>
<path d="M94.8041 158.863C95.8814 157.786 96.9586 156.709 98.0359 155.632C98.7541 154.914 97.6426 153.82 96.9244 154.521C95.8472 155.598 94.7699 156.675 93.6926 157.752C92.9915 158.47 94.0859 159.581 94.8041 158.863Z" fill="#736B66"/>
<path d="M87.9472 166.248C88.597 165.649 89.2297 165.034 89.8795 164.436C90.6147 163.752 89.5033 162.641 88.768 163.325C88.1182 163.923 87.4855 164.538 86.8357 165.137C86.1005 165.837 87.2119 166.932 87.9472 166.248Z" fill="#736B66"/>
<path d="M121.599 137.836C122.898 137.255 124.284 136.999 125.703 136.999C126.712 136.999 126.712 135.443 125.703 135.443C123.993 135.426 122.368 135.802 120.812 136.486C119.906 136.896 120.693 138.247 121.599 137.836Z" fill="#736B66"/>
<path d="M172.111 177.171C174.488 174.094 177.925 170.658 181.652 171.804C184.747 172.778 186.013 176.385 186.834 179.513C187.86 177.616 189.125 175.496 191.485 175.445C192.682 175.411 193.827 175.975 194.682 176.83C196.273 178.402 196.82 180.59 197.35 182.693C197.658 179.872 201.933 179.172 204.053 181.052C206.173 182.932 206.618 186.044 206.823 188.864C207.387 196.54 207.199 204.54 203.711 211.447C203.283 212.284 202.514 212.917 201.573 213.053C199.197 213.378 198.376 210.318 198.342 208.062C198.222 202.113 196.17 187.377 196.17 187.377C196.17 187.377 194.768 198.848 193.656 203.275C193.331 204.574 193.297 206.01 192.63 207.583C190.801 211.994 184.816 210.917 184.901 206.147C184.953 203.19 185.26 200.215 185.312 197.736C185.431 193.121 185.551 188.505 185.671 183.873C181.259 191.958 176.198 200.626 167.477 203.805C167.084 203.942 166.639 203.993 166.229 203.891C164.673 203.497 164.775 201.668 165.134 200.318C166.964 193.326 172.761 186.505 176.967 180.625L172.111 177.171Z" fill="#ED7E1C"/>
<path d="M172.658 177.736C174.556 175.342 177.378 171.872 180.797 172.47C184.183 173.069 185.278 176.864 186.064 179.736C186.235 180.368 187.176 180.522 187.5 179.924C188.629 177.855 190.322 175.223 193.143 176.659C195.383 177.804 196.05 180.693 196.597 182.915C196.786 183.65 197.948 183.685 198.102 182.915C198.495 181.035 200.667 180.419 202.36 181.001C204.138 181.616 205.045 183.514 205.506 185.206C206.344 188.334 206.293 191.907 206.276 195.121C206.259 198.591 205.968 202.096 205.096 205.463C204.737 206.848 204.138 210.147 203.027 211.07C202.104 211.344 201.163 211.6 200.24 211.874C199.932 211.532 199.71 211.139 199.59 210.694C199.282 209.942 199.197 209.173 199.128 208.369C198.615 201.275 197.897 194.232 196.905 187.189C196.768 186.232 195.469 186.608 195.366 187.394C194.597 193.565 193.964 200.01 192.288 206.027C191.656 208.301 189.587 210.797 187.039 209.104C184.85 207.651 185.705 203.993 185.842 201.788C186.218 195.839 186.252 189.856 186.406 183.907C186.423 183.137 185.312 182.83 184.953 183.514C181.105 190.522 176.847 198.249 169.478 202.096C168.417 202.66 166.023 204.318 165.664 201.6C165.545 200.625 166.263 199.138 166.605 198.249C167.443 196.044 168.605 193.976 169.854 191.976C172.231 188.18 175.001 184.693 177.617 181.069C178.198 180.248 176.847 179.462 176.266 180.283C174.522 182.71 158.346 203.395 166.212 204.728C168.058 205.036 170.435 203.446 171.906 202.506C173.975 201.19 175.821 199.549 177.463 197.719C181.071 193.719 183.739 189.001 186.321 184.3C185.842 184.163 185.346 184.044 184.867 183.907C184.765 187.873 184.662 191.822 184.559 195.788C184.474 199.36 183.739 203.224 184.115 206.78C184.474 210.164 188.031 212.335 191.108 210.54C193.212 209.31 193.725 206.951 194.152 204.728C194.58 202.472 195.076 200.215 195.452 197.942C196.016 194.437 196.495 190.933 196.939 187.411C196.426 187.48 195.913 187.548 195.4 187.616C195.931 191.411 196.409 195.206 196.82 199.001C197.093 201.566 197.367 204.13 197.504 206.711C197.606 208.677 197.538 210.917 198.803 212.575C199.915 214.028 201.83 214.267 203.3 213.156C205.523 211.481 206.361 207.139 206.908 204.609C207.661 201.07 207.883 197.412 207.832 193.805C207.781 190.505 207.832 186.847 206.669 183.702C205.797 181.377 204.053 179.428 201.454 179.274C199.231 179.137 197.076 180.266 196.615 182.539C197.11 182.539 197.623 182.539 198.119 182.539C197.35 179.445 196.084 175.445 192.425 174.812C189.33 174.265 187.483 176.795 186.167 179.189C186.645 179.257 187.124 179.308 187.603 179.377C186.697 176.026 185.295 171.94 181.516 171.034C177.343 170.026 173.906 173.77 171.598 176.676C170.931 177.411 172.042 178.522 172.658 177.736Z" fill="#251404"/>
<path d="M103.747 79.953C93.59 76.8076 83.45 73.645 73.31 70.4483C73.0877 72.6193 74.2162 74.6707 75.3106 76.5511C77.3797 80.1069 79.6368 83.8506 83.3132 85.6969C86.7331 87.4063 90.8541 87.1328 94.445 85.8336C98.0359 84.5344 101.182 82.295 104.294 80.0898L103.747 79.953Z" fill="#ED7E1C"/>
<path d="M91.2985 192.591C86.7671 188.591 81.2098 186.197 75.1565 185.787C67.6498 185.291 60.1431 187.479 52.7732 185.325C52.8929 185.753 52.9955 186.197 53.1152 186.625C56.7232 183.411 62.0754 183.889 66.5725 184.06C71.5998 184.248 76.5416 184.864 81.2611 186.642C81.3979 186.146 81.5347 185.633 81.6715 185.137C76.3535 183.753 71.121 182.095 65.9741 180.163C63.3578 179.171 60.5193 178.265 58.0741 176.881C57.6295 176.658 57.2191 176.385 56.8429 176.06C56.86 175.137 56.8771 174.214 56.8942 173.291C57.1165 172.983 58.0912 172.812 58.4674 172.744C59.8866 172.47 61.5453 172.761 62.9303 173C73.1901 174.761 81.6202 181.718 89.3834 188.18C90.1528 188.813 91.2643 187.719 90.4948 187.069C85.365 182.795 80.1496 178.505 74.2161 175.359C71.4288 173.889 68.4877 172.658 65.4098 171.906C62.8448 171.274 59.6985 170.573 57.1336 171.479C55.5433 172.043 54.2438 173.342 54.5687 175.154C54.9791 177.445 57.6808 178.453 59.5275 179.24C66.5726 182.248 73.8399 184.71 81.2611 186.642C82.2528 186.898 82.6119 185.479 81.6715 185.137C76.2167 183.086 70.4371 182.59 64.6574 182.453C60.1773 182.351 55.5091 182.402 51.9866 185.531C51.542 185.941 51.7985 186.676 52.3286 186.83C58.5871 188.659 64.9481 187.496 71.3262 187.291C78.3541 187.086 84.852 188.984 90.1699 193.668C90.9394 194.352 92.0509 193.257 91.2985 192.591Z" fill="#251404"/>
<path d="M108.979 70.7562C109.954 65.6961 110.244 60.5677 109.663 55.4392C109.304 52.2938 108.535 48.55 105.952 46.4303C100.686 42.1224 94.2906 50.9604 96.2741 55.9863C99.0956 63.1148 108.295 49.0116 109.441 46.5328C110.33 44.6182 111.886 40.5497 108.688 39.8317C107.115 39.4727 105.354 40.4984 103.952 41.1138C101.849 42.054 99.8138 43.1652 97.8815 44.4302C94.2222 46.8405 90.922 49.7638 88.1006 53.1143C86.2367 55.3196 82.6116 59.0462 84.1848 62.243C85.5527 65.0294 89.1094 64.1063 91.3666 63.1832C95.2824 61.5763 99.0272 59.4907 102.481 57.0461C109.578 52.0203 115.597 45.5242 120.145 38.1222C122.06 34.9938 124.215 31.2843 121.941 27.7456C119.82 24.4464 115.819 24.0703 112.314 24.925C103.798 27.0106 95.1285 31.7629 88.2886 37.1649C81.0042 42.9258 75.4127 50.4647 72.8136 59.4394C72.7452 59.6787 72.8136 60.0377 73.0188 60.2087C76.9687 63.4567 83.2956 59.1659 87.1088 57.3197C92.5977 54.6871 97.9157 51.6613 102.823 48.0543C111.852 41.4215 121.222 31.5065 123.514 20.1385C126.352 6.37714 107.56 8.32595 99.5231 10.9586C93.6066 12.9074 88.169 16.087 83.2614 19.8991C78.1486 23.848 72.9675 28.5833 69.274 33.9169C66.709 37.6264 64.5887 43.7122 69.1371 46.8918C73.412 49.8834 79.6876 47.2508 84.0138 45.7294C96.6674 41.2847 109.543 34.3271 118.863 24.5318C120.812 22.4804 122.607 20.2581 124.129 17.8649C125.6 15.5741 127.994 12.1552 127.395 9.24907C126.404 4.47962 119.735 5.62497 116.349 6.01815C103.473 7.53959 90.9733 11.9842 79.8586 18.6854C74.1644 22.1215 68.8123 26.1387 63.9218 30.6347C59.0997 35.0793 54.3118 40.0026 51.7127 46.1226C50.738 48.4304 50.3447 50.5501 51.7298 52.7724C53.0978 54.9606 55.5088 56.6188 57.8514 57.5932C62.8445 59.6958 68.5729 59.0291 73.6685 57.6445C80.269 55.8666 86.6813 52.875 92.7687 49.798C98.993 46.6696 105.371 43.2506 110.569 38.5496C115.135 34.4126 118.64 29.0107 119.701 22.8736C120.162 20.2068 120.419 16.7879 119.239 14.2578C118.144 11.8988 115.409 11.1124 113.1 10.4628C93.3159 4.83861 57.595 19.694 66.4183 45.0969C67.9231 49.4219 70.9497 53.0289 75.4469 54.3452C81.2607 56.0546 88.5109 55.1144 94.4103 54.2084C106.38 52.3964 118.828 47.2337 126.746 37.7461C130.302 33.4895 132.987 27.5747 130.61 22.1044C128.626 17.5401 123.753 15.181 119.068 14.4288C106.141 12.3774 93.1962 18.4803 83.0391 25.9165C78.388 29.3355 72.54 33.2673 69.8211 38.5154C67.5982 42.7891 68.932 47.7124 74.267 47.9517C80.5255 48.2252 87.5705 45.661 93.2475 43.2848C99.5744 40.6351 105.542 37.1478 111.219 33.3015C116.759 29.5406 122.06 25.4208 127.293 21.2325C127.96 20.7026 127.207 19.7966 126.523 19.9333C108.723 23.1984 92.3925 31.7971 79.1404 44.037C78.73 44.4131 78.9181 44.9772 79.2943 45.2678C83.706 48.5158 89.1778 46.1568 93.6579 44.2934C98.7707 42.1566 103.781 39.7633 108.517 36.8743C113.271 33.9682 117.768 30.5834 121.684 26.6003C123.599 24.6515 125.395 22.5488 126.968 20.3265C128.028 18.8564 128.934 17.1298 127.772 15.4203C126.728 13.8989 124.659 13.6082 122.984 13.4544C119.666 13.1638 116.332 13.4715 113.066 14.0356C106.671 15.1468 100.344 17.0614 94.2393 19.2324C82.0986 23.5745 70.5051 29.5406 59.9718 36.9427C55.5088 40.071 51.2339 43.5583 47.7285 47.7637C46.1212 49.6954 44.6677 51.7639 43.4536 53.9862C42.5302 55.6786 40.6835 58.6018 41.3333 60.6532C41.9147 62.4139 44.2744 63.2516 45.8476 63.7815C48.4467 64.6533 51.1997 64.7217 53.9015 64.3456C59.5956 63.5764 64.982 61.0463 70.1802 58.7214C91.3837 49.2509 111.441 36.2589 125.6 17.5571C128.182 14.1553 131.277 9.88158 126.352 6.90708C121.958 4.24029 115.699 6.13782 110.997 6.8387C99.6941 8.51399 88.3913 10.4799 77.4475 13.8305C66.5209 17.164 55.9705 21.9334 46.8735 28.9081C39.7601 34.3613 29.2097 43.5071 36.4599 53.0289C43.7272 62.5849 59.4588 57.559 68.5045 53.7981C80.1664 48.9603 91.093 41.6437 101.165 34.0878C106.141 30.3612 110.894 26.2755 114.998 21.6086C118.418 17.7281 121.633 13.1638 121.257 7.74473C121.154 6.25748 120.675 3.28298 119.324 2.37696C118.572 1.88121 117.426 2.05216 116.571 2.01797C114.947 1.94959 113.34 1.93249 111.715 1.96668C105.474 2.12054 99.2495 3.04366 93.2133 4.59928C81.141 7.71054 69.7869 13.2493 59.4417 20.0872C54.6538 23.2497 48.9768 26.6687 45.7792 31.5749C43.2826 35.4041 42.496 40.9428 45.6082 44.6695C48.7545 48.4475 54.4144 48.9603 58.9629 49.3535C65.2556 49.9005 71.6337 49.3877 77.8066 48.0714C88.9213 45.7294 101.267 40.9086 109.492 32.8228C113.117 29.2671 115.665 24.9079 116.366 19.8478C116.417 19.4205 116.264 19.0273 115.819 18.8905C103.61 15.2152 90.3577 17.1298 79.3969 23.5232C73.754 26.8054 68.6242 31.2501 64.7597 36.5324C60.6387 42.1395 66.0934 46.8747 71.4798 48.6013C78.0802 50.7211 85.7579 49.5928 92.29 47.832C99.7112 45.832 106.705 42.3788 113.22 38.3273C118.572 34.9938 126.335 30.8911 128.592 24.5489C130.644 18.7709 125.993 13.6253 120.214 13.5228C115.939 13.4544 111.51 15.3177 107.611 16.8904C103.747 18.4632 100.002 20.3265 96.4964 22.583C90.3748 26.4806 83.6376 31.951 83.877 39.9171C83.8941 40.3616 84.219 40.6693 84.6635 40.7035C100.925 41.7292 116.161 33.0963 125.258 19.8649C125.6 19.3692 125.138 18.6854 124.574 18.6854C110.364 18.8563 97.1462 25.5917 87.8612 36.2247C87.3824 36.7717 87.7415 37.4726 88.4083 37.5581C95.0772 38.3444 101.763 36.4469 107.269 32.6177C109.954 30.7543 112.331 28.4636 114.331 25.8652C116.264 23.3523 118.777 19.7966 119.051 16.5315C119.632 9.7961 107.526 11.4885 103.815 12.121C99.9505 12.7706 96.1886 14.0527 92.7003 15.8477C90.8878 16.7708 89.1607 17.8478 87.5021 19.0444C86.5103 19.7795 85.1594 20.5487 84.7319 21.7796C82.4748 28.3098 97.1804 23.7113 98.8904 23.1642C102.909 21.8821 106.825 20.241 110.552 18.2409C113.75 16.5315 117.614 14.6168 119.854 11.6594C121.633 9.30035 121.906 6.30876 120.265 3.79583C118.504 1.11194 115.409 0.205919 112.348 0.0691603C104.567 -0.289831 96.3083 0.770047 88.7845 2.75304C81.1581 4.77023 73.8737 8.1721 67.8205 13.2664C63.4088 16.9759 58.467 24.2925 63.4772 29.5919C67.8889 34.2588 76.1822 32.498 81.5685 31.0791C89.7079 28.9423 97.1975 24.8908 104.174 20.2752C107.868 17.8307 111.459 15.1981 114.981 12.4971C117.238 10.7705 121.034 8.68494 121.359 5.50531C122.06 -1.21295 108.979 2.65048 105.97 3.41974C91.5547 7.12932 75.1733 17.0956 69.7869 31.6945C68.5558 35.028 68.2309 38.635 70.2828 41.7121C71.9757 44.2592 74.7458 45.8832 77.5843 46.8406C85.4159 49.4732 93.8118 47.1312 101.113 43.9857C109.304 40.4471 117.136 35.8999 124.557 30.9424C131.191 26.4977 138.784 21.6257 143.777 15.2664C145.846 12.6509 147.145 9.77901 147.539 6.46262C147.573 6.12072 147.265 5.79592 146.957 5.71045C131.482 1.48803 115.34 7.33445 100.788 12.4116C87.998 16.8904 75.6179 24.019 71.1036 37.5923C70.7787 38.5496 72.3006 38.9598 72.6084 38.0025C77.1568 24.2925 90.1183 17.6597 102.943 13.3176C116.794 8.63366 131.875 3.2146 146.53 7.21479C146.342 6.95837 146.154 6.71904 145.948 6.46262C145.145 13.2493 139.553 17.7452 134.543 21.7283C129.225 25.9336 123.668 29.8141 117.888 33.3527C111.92 36.9939 105.696 40.4642 99.2153 43.1139C92.991 45.661 85.9802 47.5072 79.2943 45.7465C76.1651 44.9088 72.8991 43.2848 71.2575 40.3445C69.2569 36.7717 70.8984 32.498 72.6255 29.1645C75.5666 23.4719 80.269 18.8734 85.3646 15.0784C90.7168 11.0953 96.7016 7.94987 103.063 5.91558C105.816 5.04375 108.62 4.34286 111.459 3.8813C113.066 3.62488 114.742 3.36846 116.383 3.30008C117.7 3.24879 120.196 3.09494 119.735 5.74464C119.564 6.78742 118.572 7.62506 117.837 8.30886C115.323 10.685 112.194 12.6851 109.407 14.7194C106.688 16.7024 103.935 18.617 101.096 20.412C95.6244 23.8651 89.8618 26.8909 83.6718 28.8568C78.5419 30.4808 70.8642 32.686 65.8711 29.5406C58.4499 24.8737 66.367 16.2067 70.7958 12.8903C80.9016 5.31727 93.6066 2.44534 106.021 1.77864C109.15 1.60769 112.809 1.16323 115.785 2.27439C120.675 4.10353 120.692 9.21488 117.05 12.309C112.023 16.5998 105.115 19.523 98.9075 21.5402C97.1633 22.1044 95.4021 22.6001 93.6066 23.0104C92.0164 23.3865 89.4172 24.3609 87.7928 23.8309C84.4071 22.7198 88.3913 20.2923 89.725 19.4034C91.1785 18.4461 92.6832 17.5742 94.2564 16.8221C97.5395 15.2323 101.045 14.1211 104.653 13.5741C107.833 13.0783 112.399 12.5313 115.477 13.745C122.368 16.446 109.082 29.5064 106.175 31.4894C100.925 35.0451 94.7352 36.7375 88.4083 36.0024C88.5964 36.4469 88.7845 36.8914 88.9555 37.3358C97.967 26.9935 110.74 20.4291 124.557 20.2581C124.335 19.8649 124.112 19.4718 123.89 19.0786C115.084 31.8655 100.344 40.1223 84.6464 39.1308C84.9029 39.3872 85.1594 39.6607 85.433 39.9171C85.2278 33.0279 90.8707 28.2072 96.1202 24.6857C101.37 21.1812 107.132 18.4974 113.117 16.5486C116.435 15.4716 120.35 14.2408 123.702 15.8648C127.566 17.7281 128.456 22.1386 126.352 25.6772C123.274 30.874 116.691 34.3955 111.664 37.4555C101.301 43.7806 88.8187 49.1313 76.4045 47.9688C73.4975 47.6953 70.5906 46.9431 68.1454 45.2849C66.2986 44.037 64.4519 42.1908 64.7597 39.7462C64.9649 38.1051 66.9484 36.2247 67.9744 35.028C71.5311 30.9082 75.7889 27.3867 80.5255 24.6857C91.093 18.6512 103.73 16.8734 115.426 20.3949C115.238 20.0701 115.067 19.7453 114.878 19.4376C113.459 29.6261 104.55 35.7631 96.0006 40.0197C85.946 45.0285 74.7971 48.0885 63.5285 48.003C58.6209 47.9688 51.6956 47.9688 47.7285 44.584C42.5131 40.1565 46.0186 32.7544 50.0711 28.9936C54.0211 25.3182 58.7748 22.2924 63.3404 19.4547C67.8547 16.6511 72.5229 14.104 77.3791 11.8988C87.2285 7.41993 97.8131 4.37705 108.637 3.67616C111.134 3.52231 113.63 3.47103 116.127 3.5565C117.358 3.60778 118.179 3.47103 118.863 4.548C119.701 5.83011 119.786 7.79601 119.701 9.26616C119.376 14.9758 114.896 19.6256 111.099 23.489C103.439 31.2501 94.2051 37.4042 85.0226 43.1823C75.8231 48.9774 65.9566 54.2597 55.1326 56.1743C49.7976 57.1145 43.3681 57.5248 39.0761 53.593C34.066 48.9945 35.109 42.6523 39.23 37.9C45.5569 30.6176 54.2605 25.096 62.9129 21.0103C71.685 16.8734 81.0384 14.1211 90.4945 12.0526C99.848 10.0012 109.595 8.06953 119.153 7.26607C121.701 7.06094 125.326 7.06094 126.917 9.4713C128.763 12.2578 124.694 16.2408 123.069 18.3093C120.008 22.1898 116.657 25.8481 113.083 29.2671C105.884 36.1563 97.8131 42.0711 89.2633 47.1654C80.8161 52.2083 71.8731 56.6188 62.7248 60.2429C57.7488 62.2088 52.0034 64.0379 46.6683 62.431C45.1465 61.9695 42.8209 61.2344 42.8893 59.1488C42.9235 58.0206 43.9324 56.5333 44.4283 55.5418C45.7108 53.046 47.2839 50.7382 49.0965 48.6013C55.6627 40.8745 64.7426 35.2332 73.5317 30.3612C83.0904 25.0447 93.2475 20.8393 103.781 17.8649C109.372 16.2921 115.186 14.8049 121.051 14.9416C122.214 14.9758 123.907 14.8391 124.95 15.369C127.583 16.6853 126.113 18.9076 124.899 20.4975C123.309 22.583 121.547 24.5489 119.666 26.3781C112.519 33.3527 103.661 38.2931 94.5471 42.225C90.2209 44.0883 84.4413 47.1483 80.0809 43.9173C80.1322 44.3276 80.1835 44.7379 80.2348 45.1482C93.3159 33.0792 109.389 24.6686 126.934 21.4548C126.677 21.0274 126.421 20.5829 126.164 20.1556C114.554 29.4551 102.259 38.8231 87.9638 43.6267C84.6978 44.7208 81.3462 45.5755 77.9263 46.0884C76.3874 46.3277 74.609 46.6354 73.053 46.2593C69.5817 45.4046 69.8724 41.8318 71.1549 39.3188C72.7623 36.1563 75.7034 33.8485 78.3538 31.592C81.4659 28.9423 84.749 26.4635 88.2032 24.2583C94.1538 20.4633 100.703 17.4375 107.697 16.2067C113.87 15.1297 121.992 15.01 126.899 19.5914C133.226 25.4891 128.387 34.1733 123.377 39.0282C118.179 44.0712 111.783 47.7295 104.961 50.0544C98.6339 52.2083 91.9822 53.2511 85.3304 53.4733C78.4393 53.6956 71.7534 53.1143 68.5387 46.2251C66.1276 41.0625 66.2131 34.5323 68.4874 29.3184C71.2575 22.9933 77.0029 18.5316 83.1246 15.7109C89.7421 12.6509 97.3514 10.7534 104.653 10.856C108.107 10.9073 113.647 11.2321 116.52 13.4715C119.803 16.0357 118.418 22.4975 117.341 25.7797C114.844 33.3869 108.74 38.7205 102.139 42.8062C95.4192 46.9773 88.2374 50.5159 80.9016 53.4733C74.9681 55.8666 68.3335 58.2086 61.8356 57.1316C58.5525 56.5846 54.9103 54.9093 53.0636 51.9861C50.8406 48.4987 54.7222 43.2506 56.8084 40.4642C65.3411 29.1132 78.3025 20.2581 91.1443 14.5656C97.4369 11.7791 104.072 9.69354 110.843 8.41143C114.177 7.77892 117.666 7.1635 121.069 7.12931C122.59 7.11222 124.659 7.28317 125.566 8.71913C126.797 10.6679 124.642 13.8989 123.668 15.6083C116.332 28.2585 101.9 36.7546 88.7503 42.225C85.3817 43.6267 81.9276 44.8917 78.4051 45.8661C75.5837 46.6525 71.685 47.4218 69.3936 45.0456C63.8363 39.2675 74.6774 29.6774 78.5077 26.0362C88.0835 16.9417 102.686 7.76182 116.571 11.0953C126.215 13.4031 121.068 24.1557 117.751 29.8312C114.434 35.4725 109.971 40.3616 104.909 44.4986C100.053 48.4817 94.6497 51.7639 89.0581 54.6187C86.5958 55.8837 84.0993 57.0461 81.5685 58.1573C80.0296 58.824 77.9605 60.0548 76.2164 59.8839C73.8908 59.6446 74.609 58.8753 75.0536 57.6103C75.4469 56.4649 75.9086 55.3367 76.4216 54.2255C81.7908 42.6181 92.6319 34.7203 104.054 29.6774C106.842 28.4465 109.783 27.1644 112.758 26.4464C115.22 25.8652 117.837 25.7797 119.803 27.6089C122.334 29.9509 121.342 32.9425 119.889 35.558C116.64 41.4557 112.211 46.8235 107.201 51.3365C102.276 55.764 96.428 59.7471 90.1696 62.0207C89.4514 62.2772 88.6648 62.5678 87.8954 62.5849C85.775 62.6191 85.1936 60.3967 85.9973 58.7385C86.7839 57.1145 88.1006 55.6102 89.2462 54.2426C91.7086 51.3194 94.5471 48.6868 97.6763 46.4987C100.275 44.6866 103.097 43.0968 106.072 41.9514C106.996 41.5924 108.706 40.6351 109.116 42.6694C109.27 43.4387 108.381 45.1824 108.124 45.7636C107.32 47.5072 106.346 49.1825 105.183 50.7211C104.106 52.1741 102.857 53.5246 101.49 54.7042C100.652 55.4221 99.2495 56.9949 97.9499 55.8495C97.454 55.405 97.5053 54.1571 97.5395 53.5588C97.7105 49.986 102.054 44.396 105.525 48.1739C107.902 50.7553 108.175 55.0119 108.364 58.3112C108.586 62.3626 108.261 66.397 107.491 70.363C107.269 71.3203 108.774 71.7477 108.979 70.7562Z" fill="#251404"/>
<path d="M191.519 203.07C189.074 204.591 187.928 207.583 188.8 210.335C189.108 211.293 190.613 210.882 190.305 209.925C189.638 207.839 190.425 205.6 192.306 204.42C193.161 203.89 192.374 202.523 191.519 203.07Z" fill="#251404"/>
<path d="M204.327 204.95C201.488 206.061 199.607 208.66 199.488 211.72C199.453 212.728 201.027 212.728 201.061 211.72C201.146 209.412 202.583 207.309 204.737 206.472C205.678 206.096 205.267 204.591 204.327 204.95Z" fill="#251404"/>
<path d="M166.451 203.412C167.819 201.155 170.23 199.908 172.863 200.027C173.872 200.078 173.872 198.506 172.863 198.454C169.683 198.301 166.742 199.907 165.1 202.626C164.587 203.48 165.938 204.267 166.451 203.412Z" fill="#251404"/>
<path d="M208.448 190.386C213.441 187.685 218.896 185.975 224.538 185.257C227.445 184.881 230.369 184.761 233.293 184.898C234.747 184.967 236.183 185.086 237.62 185.274C238.646 185.411 241.45 185.479 242.305 186.129C244.015 187.445 240.133 187.565 239.193 187.668C237.808 187.821 236.44 187.924 235.055 188.027C232.131 188.232 229.207 188.385 226.283 188.608C220.828 189.052 215.39 189.804 210.26 191.822C209.457 192.146 209.542 193.309 210.466 193.36C217.391 193.719 224.265 191.651 231.156 192.796C237.329 193.822 243.091 196.865 247.076 201.702C247.076 201.326 247.076 200.967 247.076 200.591C245.109 202.796 241.125 201.651 238.628 201.224C235.551 200.694 232.49 200.095 229.446 199.429C223.376 198.095 217.391 196.471 211.457 194.625C210.5 194.317 210.089 195.839 211.047 196.129C218.229 198.386 225.513 200.266 232.883 201.754C235.961 202.369 239.107 203.087 242.219 203.361C244.374 203.549 246.648 203.412 248.17 201.719C248.478 201.378 248.444 200.95 248.17 200.608C244.203 195.788 238.492 192.659 232.387 191.445C225.051 189.992 217.801 192.198 210.448 191.804C210.517 192.317 210.585 192.83 210.654 193.343C217.835 190.505 225.564 190.215 233.174 189.719C234.627 189.616 247.435 189.856 244.442 185.599C243.262 183.924 239.501 183.958 237.688 183.719C234.165 183.257 230.592 183.154 227.052 183.428C220.264 183.941 213.646 185.787 207.644 189.035C206.772 189.514 207.559 190.864 208.448 190.386Z" fill="#251404"/>
</svg>
