<svg width="319" height="302" viewBox="0 0 319 302" fill="none" xmlns="http://www.w3.org/2000/svg">
<path fill-rule="evenodd" clip-rule="evenodd" d="M294.645 182.421C282.611 196.763 251.222 190.242 224.542 167.857C197.862 145.456 198.438 126.131 210.486 111.775C222.519 97.4324 241.447 93.4994 268.142 115.885C294.807 138.285 306.678 168.078 294.645 182.421Z" fill="#7D944D"/>
<path d="M285.52 153.766C281.017 153.766 276.691 151.858 273.635 148.443L254.632 127.196C252.004 124.254 250.557 120.468 250.557 116.521V106.245C250.557 105.136 251.458 104.249 252.551 104.249C253.658 104.249 254.544 105.15 254.544 106.245V116.521C254.544 119.478 255.622 122.317 257.6 124.52L276.602 145.767C279.26 148.724 283.187 150.188 287.115 149.655L294.497 148.665C295.59 148.532 296.594 149.286 296.741 150.38C296.889 151.474 296.121 152.479 295.029 152.627L287.646 153.618C286.952 153.707 286.229 153.766 285.52 153.766Z" fill="white"/>
<path fill-rule="evenodd" clip-rule="evenodd" d="M152.645 239.722C241.691 239.722 261.166 183.758 249.487 124.985C237.808 66.2121 197.456 11.8303 152.645 11.8303C107.835 11.8303 66.951 62.5009 55.8184 124.985C44.6858 187.484 63.5994 239.722 152.645 239.722Z" fill="#9BB168"/>
<path fill-rule="evenodd" clip-rule="evenodd" d="M150.888 43.8709H173.257C196.57 43.8709 215.469 62.7966 215.469 86.1432C215.469 109.49 196.57 128.416 173.257 128.416H150.888C127.575 128.416 108.676 109.49 108.676 86.1432C108.676 62.7818 127.575 43.8709 150.888 43.8709Z" fill="#7D944D"/>
<path fill-rule="evenodd" clip-rule="evenodd" d="M156.13 40.1893H178.498C201.812 40.1893 220.711 59.115 220.711 82.4616C220.711 105.808 201.812 124.734 178.498 124.734H156.13C132.816 124.734 113.918 105.808 113.918 82.4616C113.918 59.115 132.816 40.1893 156.13 40.1893Z" fill="white"/>
<path d="M137.32 240.151C136.212 240.151 135.326 239.249 135.326 238.155V215.932C135.326 207.12 142.487 199.934 151.302 199.934H182.175C188.775 199.934 194.149 194.552 194.149 187.943V181.881C194.149 180.772 195.05 179.885 196.142 179.885C197.25 179.885 198.135 180.787 198.135 181.881V187.943C198.135 196.755 190.975 203.941 182.16 203.941H151.302C144.702 203.941 139.328 209.323 139.328 215.932V238.14C139.328 239.249 138.427 240.151 137.32 240.151Z" fill="#7D944D"/>
<path d="M196.142 139.593C195.035 139.593 194.149 138.692 194.149 137.597V136.208C194.149 130.692 198.623 126.212 204.13 126.212H248.483C249.59 126.212 250.476 127.114 250.476 128.208C250.476 129.317 249.576 130.205 248.483 130.205H204.13C200.823 130.205 198.135 132.896 198.135 136.208V137.597C198.135 138.706 197.25 139.593 196.142 139.593Z" fill="#7D944D"/>
<path fill-rule="evenodd" clip-rule="evenodd" d="M176.584 138.913L202.923 138.453C214.657 138.247 224.335 147.597 224.55 159.341C224.55 159.341 224.55 159.341 224.547 159.355C224.747 171.096 215.41 180.79 203.677 180.997L177.338 181.456C165.605 181.662 155.926 172.312 155.712 160.568C155.712 160.568 155.712 160.568 155.714 160.554C155.516 148.798 164.854 139.104 176.584 138.913Z" fill="#926247"/>
<path fill-rule="evenodd" clip-rule="evenodd" d="M182.861 138.43L208.688 137.985C220.557 137.773 230.363 147.25 230.569 159.128L230.567 159.142C230.77 171.034 221.308 180.841 209.427 181.036L183.6 181.481C171.731 181.693 161.937 172.232 161.717 160.353L161.719 160.338C161.515 148.446 170.978 138.639 182.861 138.43Z" fill="white"/>
<path d="M183.487 170.542C178.119 170.538 173.69 166.212 173.591 160.807C173.487 155.34 177.852 150.814 183.313 150.714L183.479 150.714C183.539 150.709 183.598 150.72 183.658 150.715C189.027 150.719 193.455 155.044 193.555 160.45C193.659 165.917 189.294 170.443 183.832 170.543L183.667 170.543C183.609 170.533 183.548 170.537 183.487 170.542ZM183.392 154.705C180.128 154.759 177.523 157.465 177.581 160.717C177.636 163.984 180.33 166.576 183.594 166.523L183.759 166.522C187.008 166.467 189.613 163.76 189.555 160.508C189.5 157.242 186.782 154.615 183.542 154.702L183.392 154.705Z" fill="#926247"/>
<path d="M199.969 157.296C198.905 157.288 198.017 156.456 197.981 155.384C197.935 154.281 198.788 153.351 199.89 153.306L215.045 152.655C216.147 152.61 217.076 153.464 217.122 154.567C217.168 155.671 216.315 156.6 215.212 156.645L200.058 157.297C200.029 157.292 200 157.287 199.969 157.296Z" fill="#926247"/>
<path d="M200.545 165.432C199.482 165.424 198.594 164.592 198.557 163.52C198.511 162.416 199.365 161.487 200.467 161.442L209.215 161.068C210.318 161.023 211.247 161.877 211.293 162.981C211.339 164.084 210.486 165.014 209.383 165.059L200.635 165.433C200.604 165.442 200.574 165.437 200.545 165.432Z" fill="#926247"/>
<path fill-rule="evenodd" clip-rule="evenodd" d="M165.733 65.9113C168.331 65.9113 170.443 68.0256 170.443 70.6279V72.2248C170.443 74.8271 168.331 76.9414 165.733 76.9414C163.134 76.9414 161.023 74.8271 161.023 72.2248V70.6279C161.023 68.0256 163.134 65.9113 165.733 65.9113Z" fill="#926247"/>
<path fill-rule="evenodd" clip-rule="evenodd" d="M199.131 65.9113C201.729 65.9113 203.841 68.0257 203.841 70.628V72.2248C203.841 74.8271 201.729 76.9415 199.131 76.9415C196.532 76.9415 194.421 74.8271 194.421 72.2248V70.628C194.421 68.0257 196.532 65.9113 199.131 65.9113Z" fill="#926247"/>
<path d="M178.593 97.893C173.219 97.893 168.848 93.5164 168.848 88.1344C168.848 87.0255 169.749 86.1384 170.841 86.1384C171.949 86.1384 172.835 87.0403 172.835 88.1344C172.835 91.3133 175.419 93.9008 178.593 93.9008L187.526 93.8269C190.715 93.7973 193.284 91.269 193.372 88.0753C193.402 86.9663 194.332 86.1088 195.425 86.1384C196.532 86.1679 197.388 87.0846 197.359 88.1936C197.211 93.546 192.9 97.7747 187.555 97.8338L178.593 97.893Z" fill="#4F3422"/>
<path fill-rule="evenodd" clip-rule="evenodd" d="M43.5718 201.723C59.7687 211.082 86.98 194.227 104.373 164.064C121.766 133.901 114.62 115.951 98.4227 106.577C82.2258 97.2325 63.1203 100.012 45.7274 130.175C28.3346 160.338 27.3749 192.364 43.5718 201.723Z" fill="#7D944D"/>
<path d="M82.1225 192.408C81.3252 192.408 80.5574 191.92 80.2621 191.122L74.5187 176.188C73.3522 173.157 73.618 169.815 75.2569 167.006L87.2015 146.41C89.1062 143.142 92.635 141.102 96.4147 141.102H112.169C113.276 141.102 114.162 142.004 114.162 143.098C114.162 144.192 113.261 145.094 112.169 145.094H96.4C94.0376 145.094 91.8377 146.365 90.6417 148.406L78.6971 169.002C77.6783 170.762 77.5159 172.847 78.2394 174.739L83.9828 189.702C84.3815 190.737 83.8647 191.89 82.8312 192.29C82.595 192.364 82.3587 192.408 82.1225 192.408Z" fill="white"/>
<path d="M232.938 302C250.03 302 263.885 288.125 263.885 271.009C263.885 253.893 250.03 240.018 232.938 240.018C215.847 240.018 201.991 253.893 201.991 271.009C201.991 288.125 215.847 302 232.938 302Z" fill="#ED7E1C"/>
<path fill-rule="evenodd" clip-rule="evenodd" d="M218.819 254.03H246.959C248.515 254.03 249.775 255.288 249.775 256.841V260.115C249.775 261.668 248.515 262.926 246.959 262.926H218.819C217.263 262.926 216.003 261.668 216.003 260.115V256.841C216.003 255.288 217.263 254.03 218.819 254.03Z" fill="#4F3422"/>
<path fill-rule="evenodd" clip-rule="evenodd" d="M220.054 262.926H246.071V285.867C246.071 287.42 244.811 288.678 243.255 288.678H222.871C221.314 288.678 220.054 287.42 220.054 285.867V262.926Z" fill="white"/>
<path fill-rule="evenodd" clip-rule="evenodd" d="M224.915 267.137H242.265C243.036 267.137 243.666 267.766 243.666 268.536V277.433C243.666 278.203 243.036 278.832 242.265 278.832H224.915C224.144 278.832 223.514 278.203 223.514 277.433V268.536C223.514 267.766 224.144 267.137 224.915 267.137Z" fill="white"/>
<path d="M240.348 274.005H228.889C228.118 274.005 227.488 273.376 227.488 272.606C227.488 271.835 228.118 271.206 228.889 271.206H240.348C241.12 271.206 241.75 271.835 241.75 272.606C241.763 273.376 241.133 274.005 240.348 274.005Z" fill="#4F3422"/>
<path d="M65.6472 58.5555C77.7326 46.453 77.7326 26.8309 65.6472 14.7283C53.5619 2.62575 33.9676 2.62575 21.8822 14.7283C9.79683 26.8308 9.79684 46.453 21.8822 58.5555C33.9676 70.6581 53.5619 70.6581 65.6472 58.5555Z" fill="#ED7E1C"/>
<path d="M47.0278 42.4256H41.5797V52.5686H47.0278V42.4256Z" fill="#4F3422"/>
<path fill-rule="evenodd" clip-rule="evenodd" d="M28.0108 18.7981H60.6113C61.7186 18.7981 62.6045 19.7 62.6045 20.7942V41.7455C62.6045 42.8544 61.7038 43.7416 60.6113 43.7416H28.0108C26.9034 43.7416 26.0175 42.8396 26.0175 41.7455V20.7942C26.0175 19.7 26.9034 18.7981 28.0108 18.7981Z" fill="white"/>
<path d="M54.2477 54.7716H34.9945C33.8872 54.7716 33.0013 53.8697 33.0013 52.7756C33.0013 51.6814 33.902 50.7795 34.9945 50.7795H54.2477C55.3551 50.7795 56.241 51.6814 56.241 52.7756C56.241 53.8697 55.3551 54.7716 54.2477 54.7716Z" fill="#4F3422"/>
<path d="M34.212 38.2117C33.6952 38.2117 33.1932 38.0195 32.7946 37.6202C32.0121 36.8366 32.0121 35.5798 32.7946 34.7962L40.2065 27.3738C40.989 26.5901 42.244 26.5901 43.0265 27.3738L46.6587 31.011L52.8303 24.8306C53.6128 24.047 54.8678 24.047 55.6504 24.8306C56.4329 25.6143 56.4329 26.871 55.6504 27.6547L48.0613 35.2545C47.2788 36.0382 46.0238 36.0382 45.2412 35.2545L41.6239 31.632L35.6294 37.635C35.2455 38.0195 34.7288 38.2117 34.212 38.2117Z" fill="#4F3422"/>
<path d="M309.849 86.5786C321.934 74.476 321.934 54.8539 309.849 42.7514C297.763 30.6488 278.169 30.6488 266.084 42.7514C253.998 54.8539 253.998 74.476 266.084 86.5786C278.169 98.6811 297.763 98.6811 309.849 86.5786Z" fill="#ED7E1C"/>
<path fill-rule="evenodd" clip-rule="evenodd" d="M279.573 74.8567C275.468 70.8202 273.874 66.0592 274.76 60.6033C276.088 52.412 284.711 48.8487 291.222 50.9039C297.733 52.9591 300.465 56.6999 301.247 62.3628C301.764 66.148 300.155 70.3027 296.39 74.8567L295.017 77.1485V81.5103C295.017 85.3694 291.901 88.4891 288.048 88.4891C284.194 88.4891 281.079 85.3694 281.079 81.5103V77.6512L279.573 74.8567Z" fill="white"/>
<path fill-rule="evenodd" clip-rule="evenodd" d="M286.084 66.3253H283.087C282.718 66.3253 282.422 66.0296 282.422 65.66C282.422 65.5269 282.467 65.3938 282.541 65.2903L287.812 57.5722C288.018 57.2617 288.432 57.1878 288.742 57.3948C288.919 57.513 289.037 57.7201 289.037 57.9418V61.5348C289.037 61.9044 289.332 62.2001 289.701 62.2001H292.211C292.581 62.2001 292.876 62.4958 292.876 62.8655C292.876 62.9985 292.846 63.1168 292.772 63.2203L287.989 70.8054C287.797 71.1159 287.383 71.2046 287.073 71.0124C286.881 70.8941 286.763 70.6723 286.763 70.4505V67.0055C286.748 66.6358 286.453 66.3253 286.084 66.3253Z" fill="#4F3422"/>
<path fill-rule="evenodd" clip-rule="evenodd" d="M304.378 60.5589L307.36 60.0414C308.172 59.8935 308.955 60.4406 309.087 61.2538C309.235 62.067 308.689 62.8359 307.877 62.9837L304.894 63.5012C304.082 63.6491 303.3 63.102 303.167 62.2888C303.019 61.4756 303.565 60.7067 304.378 60.5589Z" fill="#4F3422"/>
<path fill-rule="evenodd" clip-rule="evenodd" d="M299.505 49.8689L301.277 47.4589C301.764 46.7935 302.709 46.6309 303.388 47.1188C304.053 47.6067 304.2 48.5382 303.728 49.2036C303.728 49.2036 303.728 49.2036 303.728 49.2184L301.956 51.6284C301.469 52.2938 300.524 52.4564 299.845 51.9685C299.18 51.4806 299.018 50.5491 299.505 49.8689C299.505 49.8837 299.505 49.8837 299.505 49.8689Z" fill="#4F3422"/>
<path fill-rule="evenodd" clip-rule="evenodd" d="M286.704 46.0837V43.6885C286.704 42.683 287.516 41.855 288.535 41.855C289.554 41.855 290.366 42.6682 290.366 43.6885V46.0837C290.366 47.0892 289.554 47.9172 288.535 47.9172C287.516 47.9172 286.704 47.0892 286.704 46.0837Z" fill="#4F3422"/>
<path fill-rule="evenodd" clip-rule="evenodd" d="M273.504 51.1701L271.378 49.0557C270.788 48.4791 270.788 47.5328 271.364 46.9414C271.364 46.9414 271.364 46.9414 271.378 46.9266C271.969 46.3352 272.914 46.3352 273.504 46.9266L275.631 49.0409C276.221 49.6176 276.221 50.5639 275.645 51.1553C275.645 51.1553 275.645 51.1553 275.631 51.1701C275.04 51.7467 274.095 51.7467 273.504 51.1701Z" fill="#4F3422"/>
<path fill-rule="evenodd" clip-rule="evenodd" d="M270.611 62.141L267.584 61.8749C266.757 61.8009 266.152 61.0764 266.226 60.2632C266.299 59.4352 267.023 58.829 267.85 58.9029L270.876 59.1691C271.703 59.243 272.309 59.9675 272.235 60.7807C272.161 61.6087 271.438 62.2149 270.611 62.141Z" fill="#4F3422"/>
<path d="M293.407 79.2333C293.393 79.2333 293.393 79.2333 293.407 79.2333L282.732 79.1741C281.625 79.1741 280.739 78.2722 280.754 77.1633C280.754 76.0691 281.655 75.182 282.747 75.182C282.747 75.182 282.747 75.182 282.762 75.182L293.422 75.2411C294.529 75.2411 295.415 76.143 295.401 77.252C295.386 78.3461 294.5 79.2333 293.407 79.2333Z" fill="#4F3422"/>
<path d="M290.971 86.4338H285.11C284.002 86.4338 283.116 85.5319 283.116 84.4378C283.116 83.3436 284.017 82.4417 285.11 82.4417H290.971C292.079 82.4417 292.964 83.3436 292.964 84.4378C292.964 85.5319 292.064 86.4338 290.971 86.4338Z" fill="#4F3422"/>
<path d="M244.236 8.60777C241.321 10.2909 237.53 9.9865 234.911 7.60592C234.729 7.43796 234.521 7.28476 234.316 7.16455C233.45 6.63988 232.429 6.4953 231.445 6.73924C230.46 6.98319 229.637 7.59501 229.114 8.46051L228.939 8.74901C228.807 8.96218 228.674 9.17537 228.521 9.38312C227.148 11.2859 225.119 12.5256 222.8 12.9085C220.486 13.2713 218.156 12.7211 216.266 11.3368L215.317 10.6383C215.144 10.5161 214.966 10.4142 214.788 10.3122C213.846 9.83181 212.775 9.74975 211.777 10.0873C210.771 10.4119 209.966 11.1154 209.488 12.0577C209.286 12.4471 209.057 12.8183 208.813 13.1639C207.567 14.8737 205.735 15.9825 203.65 16.2985C201.565 16.6146 199.483 16.1092 197.773 14.86L194.706 12.6186C193.82 11.9694 193.625 10.7161 194.273 9.82998C194.92 8.94383 196.172 8.75019 197.059 9.39945L200.126 11.6408C200.964 12.2664 201.999 12.5228 203.028 12.3557C204.064 12.2013 204.97 11.6442 205.594 10.8058C205.716 10.633 205.83 10.4474 205.924 10.2564C206.875 8.35893 208.516 6.95014 210.528 6.30076C212.546 5.63118 214.694 5.8081 216.591 6.76147C216.953 6.94524 217.324 7.17481 217.67 7.41915L218.631 8.11028C219.663 8.86347 220.925 9.15929 222.19 8.95827C223.455 8.75724 224.558 8.06918 225.309 7.0378C225.382 6.92753 225.467 6.80986 225.54 6.69959L225.714 6.41109C226.784 4.63233 228.474 3.36636 230.502 2.86175C232.516 2.36452 234.619 2.66994 236.398 3.74293C236.837 4.00157 237.253 4.30797 237.624 4.65671C239.242 6.12998 241.75 6.01401 243.22 4.39688C243.362 4.22951 243.504 4.06213 243.631 3.86915L245.523 0.915744C246.116 -0.00685313 247.357 -0.279289 248.279 0.314826C249.202 0.908942 249.489 2.1435 248.883 3.07348L246.991 6.02688C246.749 6.40547 246.48 6.76584 246.176 7.09517C245.571 7.70065 244.926 8.20912 244.236 8.60777Z" fill="#FFCE5C"/>
<path d="M9.64136 116.211C4.32606 116.211 0 111.878 0 106.555C0 101.233 4.32606 96.9004 9.64136 96.9004C14.9567 96.9004 19.2827 101.233 19.2827 106.555C19.2975 111.864 14.9567 116.211 9.64136 116.211ZM9.64136 100.878C6.526 100.878 3.98647 103.421 3.98647 106.541C3.98647 109.66 6.526 112.204 9.64136 112.204C12.7567 112.204 15.2962 109.66 15.2962 106.541C15.2962 103.421 12.7567 100.878 9.64136 100.878Z" fill="#C2B1FF"/>
<path d="M31.1993 270.008C30.6235 270.008 30.0625 269.771 29.6638 269.298C28.9551 268.455 29.0585 267.184 29.9148 266.489L61.1422 240.244C62.6777 238.958 63.6079 237.154 63.7851 235.158C63.9622 233.162 63.3421 231.225 62.0576 229.687C60.7731 228.149 58.9718 227.218 56.9785 227.041C54.9853 226.863 53.0511 227.484 51.5156 228.77L20.2882 255.015C19.4466 255.725 18.1916 255.621 17.4829 254.764C16.7742 253.921 16.8776 252.649 17.7339 251.954L48.9613 225.695C51.3089 223.729 54.2766 222.782 57.3329 223.048C60.3892 223.315 63.1502 224.764 65.1139 227.1C67.0776 229.451 68.0225 232.423 67.7568 235.483C67.491 238.544 66.0441 241.309 63.6965 243.275L32.4691 269.535C32.1 269.86 31.6423 270.008 31.1993 270.008Z" fill="#7D944D"/>
<path d="M156.093 295.706C149.493 295.706 144.119 290.177 144.119 283.375C144.119 276.574 149.493 271.044 156.093 271.044C157.2 271.044 158.086 271.946 158.086 273.04C158.086 274.149 157.186 275.036 156.093 275.036C151.693 275.036 148.105 278.777 148.105 283.36C148.105 287.959 151.693 291.685 156.093 291.685C157.2 291.685 158.086 292.587 158.086 293.681C158.086 294.775 157.2 295.706 156.093 295.706Z" fill="#FFCE5C"/>
</svg>
