<svg width="25" height="25" viewBox="0 0 25 25" fill="none" xmlns="http://www.w3.org/2000/svg">
<path d="M4.85324 16.2585C4.85159 16.7384 4.72578 17.2098 4.48805 17.6267C4.25032 18.0437 3.90875 18.392 3.49656 18.6379L20.519 17.6843M4.85324 16.2585L5.57984 16.261C5.57774 16.8663 5.41909 17.4608 5.11926 17.9866C4.81943 18.5125 4.38864 18.9518 3.86878 19.2619L3.86828 19.2622L2.81215 19.891L2.81072 19.8919C2.76454 19.9192 2.72854 19.9609 2.70821 20.0106C2.68788 20.0603 2.68433 20.1152 2.69808 20.1672C2.71186 20.2191 2.7422 20.265 2.78439 20.298L2.7845 20.2981C2.82598 20.3306 2.87672 20.3489 2.92922 20.3504L22.0502 20.4179C22.0916 20.4161 22.1319 20.4042 22.1676 20.3833L22.1677 20.3832C22.205 20.3613 22.2361 20.3301 22.258 20.2926L22.2581 20.2925C22.28 20.2551 22.2918 20.2127 22.2926 20.1694L22.2926 20.1692C22.2934 20.1259 22.283 20.0831 22.2625 20.0449L22.263 20.0444C22.2436 20.0107 22.2158 19.9825 22.1824 19.9625L22.1788 19.9604L21.1272 19.3241L21.1267 19.3238C20.609 19.0101 20.1813 18.5677 19.8852 18.0397M4.85324 16.2585L4.87336 10.5589C4.88018 8.90525 5.42236 7.29832 6.41879 5.97862C7.41523 4.65888 8.8123 3.69738 10.4008 3.23801C10.4695 3.21864 10.53 3.17761 10.5735 3.12103C10.6169 3.06446 10.6409 2.99536 10.6418 2.92405C10.6436 2.41652 10.8469 1.93048 11.2071 1.57287C11.5673 1.21526 12.0547 1.01536 12.5623 1.01715C13.0697 1.01894 13.5558 1.22228 13.9134 1.58243C14.271 1.94257 14.471 2.43003 14.4692 2.93756L19.4369 16.3109L19.457 10.6108C19.4613 9.11414 18.9809 7.65634 18.0875 6.45559L18.6705 6.02187L18.0875 6.45559C17.1942 5.25481 15.9359 4.37568 14.5012 3.94978C14.284 3.88588 14.0931 3.75398 13.9566 3.57353L13.9564 3.57324C13.8188 3.39123 13.7438 3.16959 13.7426 2.94144L13.7425 2.935L13.7426 2.935C13.7437 2.62019 13.6197 2.31781 13.3978 2.0944C13.176 1.87099 12.8745 1.74486 12.5597 1.74375C12.2449 1.74264 11.9425 1.86664 11.7191 2.08848C11.4957 2.31032 11.3695 2.6118 11.3684 2.92662L11.3684 2.93355L11.3683 2.93355C11.3654 3.16174 11.2886 3.3826 11.15 3.56333L11.1497 3.56364C11.0116 3.74342 10.8194 3.87422 10.601 3.93649C9.164 4.35243 7.90017 5.22245 6.99868 6.41644L6.99867 6.41645C6.09692 7.61075 5.60622 9.06497 5.59996 10.5615C5.59996 10.5616 5.59996 10.5617 5.59996 10.5619L5.57984 16.261L4.85324 16.2585ZM19.8852 18.0397L20.519 17.6843M19.8852 18.0397C19.8852 18.0397 19.8852 18.0398 19.8853 18.0398L20.519 17.6843M19.8852 18.0397C19.5891 17.5118 19.4347 16.9162 19.4369 16.3109L20.1635 16.3135C20.1617 16.7934 20.2842 17.2657 20.519 17.6843" stroke="#221F1F" stroke-opacity="0.6" stroke-width="1.4"/>
<path d="M10.8288 23.4478C11.1891 23.7046 11.6042 23.8744 12.0412 23.9437C12.4783 24.0131 12.9256 23.9801 13.3477 23.8474C13.7699 23.7147 14.1555 23.4858 14.4743 23.1789C14.7931 22.8719 15.0364 22.4952 15.1849 22.0784L9.78948 22.0593C9.98447 22.6182 10.3474 23.1032 10.8288 23.4478Z" fill="#221F1F" fill-opacity="0.6"/>
</svg>
