<svg width="61" height="60" viewBox="0 0 61 60" fill="none" xmlns="http://www.w3.org/2000/svg">
<path fill-rule="evenodd" clip-rule="evenodd" d="M23.1234 42.2038C25.0229 37.618 28.3825 33.7871 32.6812 31.3053C36.9798 28.8235 41.9772 27.8295 46.8984 28.4773C51.8195 29.1252 56.3894 31.3788 59.8992 34.8887C61.3668 36.3563 61.3668 38.7357 59.8992 40.2033C58.4316 41.6709 56.0522 41.6709 54.5846 40.2033C52.2447 37.8634 49.1981 36.361 45.9173 35.9291C42.6366 35.4972 39.3049 36.1599 36.4392 37.8144C33.5734 39.469 31.3337 42.0229 30.0674 45.0801C28.801 48.1373 28.5789 51.5269 29.4353 54.7232C29.9725 56.728 28.7828 58.7887 26.778 59.3259C24.7732 59.863 22.7125 58.6733 22.1754 56.6685C20.8907 51.874 21.2239 46.7896 23.1234 42.2038Z" fill="#663600"/>
<path fill-rule="evenodd" clip-rule="evenodd" d="M1.87954 23.0522C3.67698 22.0144 5.97536 22.6303 7.01311 24.4277L12.6502 34.1914C13.6879 35.9888 13.0721 38.2872 11.2746 39.325C9.47718 40.3627 7.17881 39.7469 6.14105 37.9494L0.504007 28.1858C-0.533745 26.3883 0.082103 24.0899 1.87954 23.0522Z" fill="#663600"/>
<path fill-rule="evenodd" clip-rule="evenodd" d="M40.9342 0.504007C42.7316 -0.533745 45.03 0.0821028 46.0678 1.87954L51.7048 11.6432C52.7426 13.4406 52.1267 15.739 50.3293 16.7768C48.5318 17.8145 46.2335 17.1987 45.1957 15.4012L39.5587 5.63757C38.5209 3.84013 39.1368 1.54176 40.9342 0.504007Z" fill="#663600"/>
</svg>
