<svg width="20" height="20" viewBox="0 0 20 20" fill="none" xmlns="http://www.w3.org/2000/svg">
<path d="M3.33331 4.99996C3.33331 6.53205 3.63508 8.04914 4.22139 9.4646C4.80769 10.8801 5.66705 12.1662 6.7504 13.2495C7.83376 14.3329 9.11988 15.1923 10.5353 15.7786C11.9508 16.3649 13.4679 16.6666 15 16.6666" stroke="#4B3425" stroke-width="1.66667" stroke-linejoin="round"/>
<path d="M3.33331 5C3.33331 3.61929 4.4526 2.5 5.83331 2.5V2.5C7.21402 2.5 8.33331 3.61929 8.33331 5V5C8.33331 6.38071 7.21402 7.5 5.83331 7.5V7.5C4.4526 7.5 3.33331 6.38071 3.33331 5V5Z" stroke="#4B3425" stroke-width="1.66667" stroke-linejoin="round"/>
<path d="M12.5 14.1666C12.5 12.7859 13.6193 11.6666 15 11.6666V11.6666C16.3807 11.6666 17.5 12.7859 17.5 14.1666V14.1666C17.5 15.5473 16.3807 16.6666 15 16.6666V16.6666C13.6193 16.6666 12.5 15.5473 12.5 14.1666V14.1666Z" stroke="#4B3425" stroke-width="1.66667" stroke-linejoin="round"/>
</svg>
