<svg width="207" height="194" viewBox="0 0 207 194" fill="none" xmlns="http://www.w3.org/2000/svg">
<circle cx="107" cy="97" r="97" fill="#3F3C36"/>
<path d="M20.3801 63.3564C19.4267 62.7756 18.4952 62.151 17.6185 61.4496C16.9829 60.9455 15.6022 60.0798 15.2844 59.3237C14.6268 57.7676 17.1473 58.5237 18.0459 58.6662C19.1308 58.8415 20.2157 59.0387 21.3006 59.247C21.6403 59.3127 21.8704 58.9949 21.7279 58.699C20.4239 55.8827 19.5691 52.9458 19.1089 49.8774C18.9226 50.0199 18.7363 50.1624 18.5609 50.3048C20.7636 51.9267 22.9443 53.5814 25.0922 55.269C25.3771 55.4882 25.8264 55.3019 25.7168 54.9074C25.136 52.6719 25.0922 50.4802 25.6073 48.2337C25.399 48.2885 25.1908 48.3433 24.9826 48.398C26.6264 50.1514 28.2702 51.8938 29.9139 53.6472C30.2427 53.9978 30.7797 53.4718 30.4509 53.1102C28.8071 51.3568 27.1634 49.6144 25.5196 47.8611C25.3333 47.6638 24.9497 47.7515 24.8949 48.0255C24.347 50.4035 24.3799 52.7486 25.0045 55.1046C25.2127 54.9841 25.421 54.8636 25.6292 54.743C23.4265 53.0116 21.2019 51.324 18.9445 49.6583C18.6486 49.4391 18.3527 49.8007 18.3966 50.0857C18.8568 53.2198 19.7554 56.2115 21.0814 59.0826C21.2239 58.8963 21.3663 58.71 21.5088 58.5347C19.7006 58.184 17.8925 57.8552 16.0734 57.6251C15.3172 57.5265 14.2981 57.3402 14.046 58.2716C13.7721 59.3017 15.1748 60.299 15.7884 60.8688C17.0815 62.0633 18.5061 63.0934 20.0075 64.0139C20.4129 64.255 20.7965 63.6084 20.3801 63.3564Z" fill="#FFBD1A"/>
<path d="M152.77 48.4638C153.548 45.8886 154.808 43.5763 156.54 41.5271C156.32 41.4394 156.112 41.3518 155.893 41.2641C156.09 43.7188 156.288 46.1735 156.485 48.6282C156.507 48.9679 156.868 49.1104 157.131 48.8912C160.189 46.3817 163.487 44.201 166.994 42.3599C166.808 42.2175 166.621 42.075 166.446 41.9326C166.074 44.6722 165.35 47.3022 164.243 49.8446C164.101 50.1624 164.408 50.5788 164.758 50.3596C167.038 48.9241 169.482 47.9597 172.112 47.4337C171.958 47.2803 171.805 47.1269 171.651 46.9735C170.764 49.461 169.58 51.7733 168.112 53.965C167.838 54.3704 168.495 54.743 168.758 54.3485C170.271 52.102 171.465 49.724 172.375 47.1707C172.484 46.8748 172.166 46.6557 171.914 46.7105C169.208 47.2474 166.709 48.2446 164.375 49.7131C164.55 49.8884 164.715 50.0528 164.89 50.2281C166.019 47.631 166.786 44.9461 167.169 42.1408C167.213 41.823 166.928 41.549 166.621 41.7134C163.06 43.5873 159.718 45.8009 156.616 48.3542C156.836 48.4419 157.044 48.5296 157.263 48.6172C157.066 46.1625 156.868 43.7078 156.671 41.2531C156.649 40.9573 156.255 40.7162 156.025 40.9901C154.205 43.138 152.88 45.5598 152.058 48.2556C151.904 48.7268 152.627 48.9241 152.77 48.4638Z" fill="#FFBD1A"/>
<path d="M88.1586 20.3772C87.8189 18.0869 87.797 15.8294 88.06 13.5282C87.8408 13.6158 87.6326 13.7035 87.4134 13.7912C89.1558 15.6979 90.8873 17.6157 92.6297 19.5225C92.8379 19.7526 93.1557 19.5992 93.2543 19.3581C94.3063 16.8376 95.7967 14.6131 97.7144 12.6734C97.5062 12.6186 97.298 12.5638 97.0898 12.509C97.4076 14.5035 97.7254 16.5089 98.0432 18.5033C98.098 18.8649 98.5582 18.8211 98.7335 18.591C100.29 16.476 102.185 14.7226 104.421 13.3309C104.235 13.2213 104.048 13.1117 103.851 13.0022C103.72 15.15 103.391 17.2431 102.876 19.3252C102.755 19.7964 103.479 19.9937 103.599 19.5225C104.136 17.3746 104.465 15.2048 104.607 12.9912C104.629 12.7063 104.279 12.52 104.037 12.6624C101.692 14.1199 99.7198 15.9719 98.087 18.1855C98.3171 18.2184 98.5472 18.2403 98.7774 18.2732C98.4596 16.2787 98.1418 14.2733 97.824 12.2789C97.7802 11.994 97.3747 11.9282 97.1994 12.1145C95.183 14.1528 93.6488 16.487 92.542 19.128C92.7502 19.0732 92.9584 19.0184 93.1666 18.9636C91.4242 17.0568 89.6928 15.1391 87.9504 13.2323C87.7093 12.9693 87.3367 13.1994 87.3038 13.4953C87.0408 15.8623 87.0847 18.1855 87.4353 20.5416C87.5011 21.0457 88.2244 20.8484 88.1586 20.3772Z" fill="#FFBD1A"/>
<path d="M83.6219 173.522C84.3342 176.306 85.0465 179.1 85.7588 181.884C85.8355 182.179 86.3067 182.267 86.4492 181.971C87.5779 179.659 88.7176 177.347 89.8463 175.035C89.6491 175.056 89.4518 175.089 89.2546 175.111C91.3695 177.215 93.8133 178.826 96.5748 179.955C96.8378 180.064 97.1228 179.747 97.0351 179.495C96.2351 177.237 95.9173 174.936 96.0707 172.547C95.9173 172.667 95.7529 172.788 95.5995 172.909C97.6488 173.435 99.687 173.961 101.736 174.498C102.065 174.585 102.317 174.235 102.164 173.95C100.805 171.374 99.435 168.799 98.0761 166.224C97.846 165.797 97.1995 166.18 97.4296 166.607C98.7884 169.183 100.158 171.758 101.517 174.333C101.66 174.147 101.802 173.961 101.944 173.785C99.8953 173.259 97.857 172.733 95.8077 172.196C95.5557 172.131 95.3475 172.317 95.3365 172.558C95.1831 175.024 95.5119 177.38 96.3228 179.714C96.4762 179.56 96.6296 179.407 96.783 179.254C94.142 178.169 91.8188 176.613 89.7915 174.607C89.6271 174.443 89.3094 174.465 89.1998 174.684C88.071 176.996 86.9314 179.308 85.8026 181.621C86.0328 181.653 86.2629 181.675 86.493 181.708C85.7807 178.925 85.0684 176.13 84.3561 173.347C84.2246 172.854 83.5013 173.051 83.6219 173.522Z" fill="#FFBD1A"/>
<path d="M198.992 128.187C201.677 128.702 204.121 129.798 206.268 131.496C206.323 131.288 206.378 131.08 206.433 130.872C203.419 132.088 200.417 133.305 197.403 134.521C197.151 134.62 197.019 134.937 197.239 135.146C199.715 137.556 201.644 140.351 203.014 143.518C203.156 143.332 203.299 143.145 203.441 142.97C201.052 142.181 198.641 141.534 196.176 141.03C195.847 140.965 195.595 141.282 195.748 141.578C197.129 144.318 198.51 147.057 199.891 149.797C200 149.611 200.11 149.424 200.219 149.227C197.885 149.041 195.639 148.581 193.425 147.846C192.965 147.693 192.768 148.416 193.228 148.57C195.507 149.326 197.83 149.786 200.23 149.972C200.537 149.994 200.669 149.644 200.559 149.403C199.178 146.663 197.797 143.923 196.417 141.184C196.274 141.37 196.132 141.556 195.989 141.732C198.455 142.236 200.866 142.882 203.255 143.671C203.605 143.781 203.803 143.397 203.682 143.123C202.29 139.902 200.307 137.041 197.787 134.598C197.732 134.806 197.677 135.014 197.622 135.222C200.636 134.006 203.638 132.789 206.652 131.573C206.882 131.485 207.068 131.146 206.816 130.948C204.57 129.162 202.038 127.99 199.211 127.453C198.718 127.376 198.521 128.099 198.992 128.187Z" fill="#FFBD1A"/>
<path d="M185.185 145.852C181.711 149.907 170.775 146.258 160.758 137.688C150.742 129.118 145.428 118.883 148.901 114.829C152.375 110.774 163.312 114.423 173.328 122.993C183.344 131.562 188.659 141.797 185.185 145.852Z" fill="#251404"/>
<path d="M114.075 149.468C110.601 153.523 99.6644 149.874 89.6484 141.304C79.6323 132.735 74.3175 122.499 77.7913 118.445C81.2651 114.39 92.2017 118.039 102.218 126.609C112.234 135.167 117.549 145.403 114.075 149.468Z" fill="#251404"/>
<path d="M146.172 73.997C150.709 68.3205 159.947 61.8221 166.906 59.751C173.875 57.6798 181.985 58.7209 187.464 63.4878C193.622 68.8575 195.442 77.6462 195.694 85.8103C196.263 103.432 191.135 126.214 186.247 143.156C183.946 136.022 176.615 125.458 170.423 121.228C164.232 116.987 155.903 115.574 149.043 118.62C144.167 120.79 140.397 124.987 137.975 129.743C135.553 134.488 136.101 108.418 135.367 113.689C132.945 113.053 130.304 120.275 127.882 119.639C127.882 119.639 117.658 140.548 114.754 147.879C111.445 140.208 102.798 131.978 94.996 128.954C87.2045 125.929 78.7775 125.031 70.46 124.154C74.5256 116.856 78.6131 109.546 81.9116 101.875C83.7088 97.7112 85.2758 93.4374 87.4128 89.4375C95.2481 74.7641 111.532 64.5179 128.145 65.4713C135.981 65.9206 144.222 69.241 148.035 76.101L146.172 73.997Z" fill="#FFBD1A"/>
<path d="M108.947 142.904C105.221 155.945 93.9446 166.531 80.6958 169.413C73.7262 170.936 66.2745 169.917 61.6719 163.977C51.0531 150.301 57.8583 128.461 62.0554 113.711C67.184 95.6839 74.1536 73.6135 85.0573 58.3702C85.0573 58.3702 82.3396 54.8197 79.6 48.1788C78.3178 45.0556 78.1535 41.5051 79.3589 38.36C80.5643 35.2149 84.3779 32.9355 87.4353 34.3382C86.3175 32.7054 87.6873 30.3274 89.5393 29.6699C91.4023 29.0124 93.4515 29.5384 95.3473 30.0754C94.109 28.9905 94.7337 26.7659 96.1473 25.9221C97.5609 25.0783 99.3472 25.2536 100.947 25.6262C105.331 26.6563 109.374 29.0453 112.464 32.3109C114.207 34.1519 112.454 37.1436 110.01 36.4861C106.788 35.6204 103.873 34.5574 101.55 33.4396C102.558 34.1081 105.55 36.256 108.235 38.5025C110.371 40.2777 108.487 43.6858 105.835 42.8311C103.742 42.1626 101.835 41.3517 101.013 40.8037C104.947 44.8913 108.947 49.0993 111.248 54.2827C115.785 64.4741 113.001 76.2654 110.262 87.0705C106.437 102.193 103.205 120.702 99.8293 135.934C99.8403 135.934 105.988 138.915 108.947 142.904Z" fill="#F6A460"/>
<path d="M108.453 64.9456C110.141 59.1047 111.741 52.5515 108.552 47.2914C106.218 43.445 101.593 41.0999 96.8922 40.6287C92.191 40.1574 87.435 41.3519 83.1831 43.2806C79.8079 44.8148 76.6519 46.8093 74.0109 49.3078C66.6906 56.2226 63.951 66.2167 58.4717 74.4904C55.9184 78.3478 51.5679 82.2381 46.8886 81.0545C44.8174 80.5285 43.1737 79.082 41.2669 78.1505C37.0917 76.1013 31.8535 76.6821 27.6564 78.7094C23.4593 80.7367 20.1389 84.0243 17.1144 87.4324C11.4927 93.7773 6.4956 101.054 5.45454 109.24C4.41348 117.426 8.28183 126.609 16.3254 129.973C18.9773 131.091 21.9032 131.518 24.7744 131.935C30.955 132.844 37.9136 134.269 41.1463 139.299C42.6586 141.644 43.1627 144.57 45.2119 146.532C46.4831 147.737 48.2146 148.438 49.9789 148.833C56.1485 150.192 62.636 148.055 68.0494 144.975C71.5233 143.003 74.8218 140.548 76.8162 137.228C79.4901 132.79 79.5011 127.442 80.2353 122.39C80.7832 118.686 81.7476 115.026 83.1283 111.508C83.753 109.919 84.4872 108.319 85.7584 107.136C87.0295 105.941 88.9692 105.229 90.6787 105.766C91.6979 106.084 92.5307 106.796 93.5279 107.191C95.7416 108.067 98.3606 107.18 100.202 105.744C105.451 101.657 105.834 94.3581 105.56 87.9693C105.286 81.5805 105.034 74.4466 109.582 69.6906L108.453 64.9456Z" fill="#251404"/>
<path d="M86.2509 43.8943C75.5773 41.0889 65.4736 49.5379 60.4437 58.1842C57.8465 62.6662 55.852 67.7619 51.9289 71.3125C47.3483 75.4548 40.9375 76.0027 35.0967 74.9397C32.1927 74.4137 29.4969 73.285 26.6477 72.5836C24.0286 71.9371 21.5848 72.2878 19.1521 73.4165C14.1988 75.7178 9.42092 78.9724 6.53884 83.6956C3.55813 88.583 0.895213 94.6102 0.182911 100.309C-0.474598 105.591 0.654126 111.081 3.34992 115.672C6.18816 120.494 10.7469 124.242 15.9851 126.16C22.5273 128.56 29.5955 127.672 36.335 126.773C36.8062 126.708 36.8172 125.962 36.335 126.017C30.4174 126.806 24.2587 127.628 18.385 126.116C13.2783 124.801 8.64287 121.7 5.4649 117.492C2.10065 113.031 0.445914 107.366 0.785627 101.799C1.14726 95.9691 3.7773 90.0515 6.6265 85.0215C9.4538 80.0025 14.1112 76.6273 19.2616 74.1836C22.5602 72.6165 25.4422 72.8905 28.8175 74.0192C31.3269 74.8521 33.8584 75.5534 36.4884 75.9041C40.9814 76.4958 45.7593 76.1342 49.7482 73.822C53.6494 71.5536 56.1041 67.6962 58.2081 63.8388C61.0025 58.7102 63.6655 53.7789 68.1913 49.9215C73.0569 45.7682 79.6101 42.919 86.0427 44.6066C86.5139 44.7491 86.7221 44.0258 86.2509 43.8943Z" fill="#251404"/>
<path d="M20.9063 127.211C24.8952 128.088 28.4567 130.269 31.0868 133.392C34.0784 136.953 34.7688 140.898 35.6455 145.315C36.3578 148.931 37.9906 151.912 41.2672 153.764C44.3356 155.506 48.0615 156.251 51.5463 156.492C58.0446 156.931 64.8389 155.068 69.8689 150.838C76.2357 145.468 77.5836 137.403 77.6823 129.48C77.748 124.198 77.485 118.938 78.0001 113.667C78.5151 108.385 80.4876 102.259 86.2628 100.768C86.734 100.648 86.5367 99.9247 86.0655 100.045C77.6384 102.215 77.0467 112.604 76.9152 119.705C76.7398 128.461 78.1754 138.488 73.0468 146.191C68.9264 152.383 61.4856 155.583 54.2092 155.802C50.4285 155.912 46.4067 155.32 42.9438 153.786C41.1138 152.975 39.4042 151.813 38.2536 150.158C36.8728 148.186 36.4783 145.775 36.0729 143.452C35.3606 139.331 34.1223 135.693 31.3059 132.515C28.6211 129.491 25.0486 127.376 21.1036 126.499C20.6324 126.378 20.4351 127.113 20.9063 127.211Z" fill="#251404"/>
<path d="M78.1208 105.152C81.5727 103.87 83.9069 107.388 85.3753 109.93C86.5479 111.946 87.7862 113.941 89.9889 114.927C94.2846 116.856 98.3502 114.368 100.597 110.686C105.539 102.588 105.67 91.0047 99.8077 83.3776C99.5118 82.9941 98.8652 83.3776 99.1611 83.7612C104.936 91.2677 104.827 102.873 99.6871 110.73C98.1968 113.009 95.9503 114.872 93.1011 114.861C90.0656 114.85 88.0492 112.933 86.5698 110.478C84.7726 107.497 82.1974 102.851 77.9345 104.44C77.4743 104.593 77.6715 105.317 78.1208 105.152Z" fill="#251404"/>
<path d="M84.4761 45.1872C77.8243 39.2806 68.2576 40.8038 61.1565 44.9899C56.9922 47.4446 53.2444 50.6774 49.8144 54.0636C46.1214 57.7237 42.5599 63.6632 36.9492 64.3207C33.9794 64.6714 30.4508 62.8632 30.6152 59.4771C30.6919 58.0524 31.5905 56.4963 33.0699 56.1785C34.7575 55.8169 36.6204 57.0333 36.73 58.7757C36.7629 59.2579 37.5081 59.2579 37.4861 58.7757C37.256 55.1265 32.248 54.2279 30.4946 57.3182C28.2481 61.2633 32.0836 65.0549 35.9739 65.1535C41.9572 65.307 45.8146 59.225 49.5076 55.4662C53.8581 51.0171 58.8004 46.7104 64.5098 44.1023C70.7342 41.264 78.5695 40.9462 83.9611 45.7351C84.3118 46.0419 84.8487 45.5159 84.4761 45.1872Z" fill="#251404"/>
<path d="M99.5886 42.3708C103.095 41.8776 106.416 43.9597 109.835 44.4419C112.432 44.8036 115.084 44.683 117.648 44.1241C122.897 42.9954 127.599 40.0147 131.127 35.9929C134.009 32.7054 137.965 27.6754 135.511 23.2263C133.472 19.5442 128.541 15.2156 124.004 15.7088C122.119 15.906 120.585 17.4402 121.045 19.4346C121.517 21.4729 123.763 22.1304 125.484 21.2209C125.911 20.9907 125.527 20.3442 125.1 20.5743C122.218 22.0866 120.3 17.747 123.27 16.6293C124.453 16.18 125.834 16.5197 126.985 16.9361C129.538 17.8676 131.839 19.599 133.549 21.6921C134.601 22.9852 135.719 24.6399 135.664 26.3823C135.62 27.8398 134.798 29.2425 134.108 30.4808C132.87 32.7163 131.335 34.7875 129.549 36.6066C125.681 40.5517 120.563 43.2474 115.029 43.7954C112.202 44.0803 109.396 43.7954 106.69 42.9625C104.246 42.2173 101.999 41.2968 99.4023 41.6585C98.9092 41.7133 99.1174 42.4365 99.5886 42.3708Z" fill="#251404"/>
<path d="M95.0503 72.5835C95.8941 74.293 97.0009 75.9259 98.4584 77.4053L103.313 71.0712L110.096 85.0324C112.496 89.9746 118.874 91.454 123.159 88.0131C123.225 87.9583 123.301 87.9035 123.367 87.8377C127.433 84.5392 127.564 78.3696 123.696 74.841L94.9517 48.6611C94.9517 48.6611 90.1409 61.5922 94.7544 71.937L95.0503 72.5835Z" fill="#F6A460"/>
<path d="M94.7559 71.9371C95.9284 68.1235 97.9886 62.8306 101.397 65.1209C101.802 65.2962 101.32 67.4989 100.564 68.1345C98.5365 69.4385 96.4763 70.8412 95.0517 72.5836L94.7559 71.9371Z" fill="#F6A460"/>
<path d="M94.7331 72.7698C95.6537 74.5779 96.7933 76.1998 98.196 77.6682C98.3823 77.8655 98.6453 77.7778 98.7878 77.5915C100.41 75.4765 102.021 73.3725 103.642 71.2575C103.423 71.2575 103.204 71.2575 102.996 71.2575C105.067 75.5203 107.138 79.7832 109.209 84.0351C110.316 86.3035 111.642 88.276 114.02 89.3938C117.253 90.9061 120.902 90.3143 123.653 88.1007C124.025 87.7938 123.499 87.2678 123.116 87.5637C119.872 90.1828 115.16 90.117 112.124 87.1802C110.722 85.8213 109.987 83.9145 109.144 82.1831C107.313 78.4134 105.472 74.6437 103.642 70.8739C103.5 70.589 103.149 70.6767 102.996 70.8739C101.374 72.9889 99.7631 75.093 98.1412 77.2079C98.3385 77.186 98.5357 77.1531 98.733 77.1312C97.3741 75.7066 96.2783 74.1396 95.3907 72.3862C95.1605 71.9588 94.514 72.3424 94.7331 72.7698Z" fill="#251404"/>
<path d="M94.5906 48.5624C91.8839 55.8937 91.314 64.8796 94.4372 72.1232C94.6235 72.5615 95.281 72.189 95.0838 71.7397C92.0483 64.6824 92.6948 55.8827 95.3139 48.7597C95.4783 48.3104 94.755 48.1131 94.5906 48.5624Z" fill="#251404"/>
<path d="M94.7559 71.9369C94.8545 72.156 94.9531 72.3642 95.0517 72.5834C95.4024 72.156 95.786 71.7396 96.2133 71.3561C97.101 68.6493 98.7995 66.3261 101.539 65.5152C101.528 65.3179 101.484 65.1755 101.397 65.1316C97.9886 62.8303 95.9284 68.1233 94.7559 71.9369Z" fill="#251404"/>
<path d="M96.2119 71.3562C97.4941 70.1618 99.0392 69.1207 100.562 68.1344C101.154 67.6413 101.571 66.2057 101.538 65.5044C98.7981 66.3263 97.0996 68.6385 96.2119 71.3562Z" fill="#ED7E1C"/>
<path d="M111.445 55.3895C111.336 57.6579 109.418 59.4113 107.15 59.3127C104.881 59.2031 103.128 57.2854 103.227 55.0169C103.336 52.7485 105.254 50.9952 107.522 51.0938C109.802 51.1924 111.555 53.1102 111.445 55.3895Z" fill="#F6A460"/>
<path d="M106.919 57.0443C107.478 55.6416 108.037 54.239 108.618 52.8472C108.804 52.3979 108.081 52.2116 107.894 52.65C107.314 54.0417 106.755 55.4444 106.196 56.8471C106.01 57.2964 106.744 57.4936 106.919 57.0443Z" fill="#251404"/>
<path d="M103.314 71.071L109.845 84.4623L106.568 66.1506L103.314 71.071Z" fill="#251404"/>
<path d="M97.6158 59.1045C97.1226 60.2551 96.6405 61.4057 96.1473 62.5564C96.0158 62.8632 96.3117 63.3125 96.6624 63.0714C97.2541 62.655 97.8897 62.3701 98.5911 62.2057C99.0623 62.0961 98.865 61.3729 98.3938 61.4824C97.6267 61.6578 96.9254 61.9756 96.2788 62.4249C96.4542 62.6002 96.6186 62.7646 96.7939 62.9399C97.287 61.7893 97.7692 60.6386 98.2623 59.488C98.4486 59.0497 97.8021 58.6661 97.6158 59.1045Z" fill="#251404"/>
<path d="M93.6588 60.6605C93.3629 63.1042 93.067 65.537 92.7711 67.9807C92.7492 68.178 92.9574 68.3752 93.1437 68.3533C93.8012 68.2985 94.5135 67.8821 95.1162 67.641C95.5546 67.4657 95.3683 66.7315 94.919 66.9178C94.393 67.126 93.7026 67.5643 93.1437 67.6081C93.2643 67.7287 93.3958 67.8602 93.5163 67.9807C93.8122 65.537 94.1081 63.1042 94.4039 60.6605C94.4697 60.1783 93.7136 60.1783 93.6588 60.6605Z" fill="#251404"/>
<path d="M95.4788 55.554C96.2897 56.3101 97.3636 56.6827 98.4705 56.5403C98.9417 56.4745 98.9526 55.7293 98.4705 55.7841C97.5499 55.9047 96.6952 55.6526 96.0158 55.017C95.6541 54.6992 95.1281 55.2252 95.4788 55.554Z" fill="#251404"/>
<path d="M180.89 139.902C176.09 150.345 167.06 158.783 156.299 162.849C147.652 166.114 136.749 166.125 130.382 159.452C126.163 155.035 124.804 148.657 124.092 142.586C123.533 137.787 123.259 132.965 123.292 128.132C123.314 124.264 123.522 120.385 123.412 116.516C123.138 106.851 122.349 96.8128 120.081 87.4105C117.297 75.8602 112.673 64.2442 104.246 55.861C104.092 55.7075 103.939 55.576 103.797 55.4445C102.471 54.2939 103.523 52.1241 105.254 52.409C106.284 52.5844 107.336 52.9131 108.081 53.5487C111.643 56.5623 111.741 55.4555 116.837 60.1019C113.166 57.2089 109.868 53.8556 107.04 50.1406C106.262 49.1105 107.15 47.6311 108.421 47.8941C111.873 48.6174 118.623 53.5158 122.525 56.0034C122.525 56.0034 112.355 47.412 112.355 46.2832C112.355 44.4093 115.325 45.1436 117.517 46.1956C121.845 48.2886 128.037 52.146 133.089 55.6308C134.152 56.365 135.335 54.8747 134.371 54.009C131.795 51.6967 128.464 49.8228 126.261 49.8119C125.845 49.8119 125.44 49.7571 125.067 49.5817C123.051 48.6174 124.135 46.7435 125.472 46.4367C126.426 46.2175 130.437 46.5353 131.346 46.8969C139.543 50.1516 142.151 53.5487 148.704 63.1593C152.595 68.8687 155.17 75.3561 157.274 81.9312C162.03 96.7909 166.72 111.004 167.191 126.598C173.372 128.888 178.851 134.773 180.89 139.902Z" fill="#F6A460"/>
<path d="M123.893 136.318C123.433 128.691 123.981 121.053 123.663 113.426C123.367 106.095 122.742 98.7633 121.351 91.5526C118.918 78.9394 114.304 65.833 105.275 56.3868C104.551 55.6307 103.05 54.6115 103.773 53.439C104.529 52.2116 106.568 53.0006 107.488 53.5924C108.474 54.228 109.329 55.0718 110.326 55.7074C112.551 57.143 114.6 58.5895 116.573 60.3757C116.748 60.2004 116.923 60.025 117.11 59.8387C114.819 58.0196 112.672 56.0471 110.688 53.8992C110.162 53.3294 109.647 52.7486 109.143 52.1459C108.814 51.7623 107.368 50.3597 107.379 49.9432C107.795 49.4063 108.2 48.8583 108.617 48.3214C108.814 48.3762 109.022 48.431 109.22 48.4967C109.768 48.6173 110.315 48.9241 110.82 49.1652C114.907 51.1048 118.567 53.8883 122.359 56.3211C122.709 56.5512 123.148 56.0142 122.819 55.7293C120.058 53.3952 117.318 51.0281 114.743 48.4967C114.239 48.0036 113.285 47.2913 112.989 46.6228C112.222 44.8475 115.323 45.7023 116.156 45.9982C119.663 47.2584 122.972 49.5049 126.107 51.4665C127.772 52.5075 129.416 53.5705 131.038 54.6663C131.904 55.2471 133.164 56.617 134.315 56.0471C137.021 54.7102 132.506 51.9815 131.52 51.3678C130.282 50.6007 128.934 49.8884 127.498 49.5816C126.874 49.4501 126.172 49.5268 125.57 49.3515C123.323 48.7049 124.704 46.8858 126.139 46.7324C128.89 46.4475 131.52 47.2474 133.953 48.42C140.506 51.6089 144.396 57.4717 148.385 63.3235C148.659 63.7181 149.306 63.3455 149.032 62.94C145.328 57.5046 141.635 51.7514 135.728 48.4858C133.153 47.0611 130.786 46.1735 127.849 45.9982C126.326 45.9105 122.918 46.031 123.652 48.5734C123.926 49.5378 124.967 50.009 125.866 50.1405C128.211 50.4692 130.085 51.2254 132.046 52.5952C132.55 52.9459 133.032 53.3184 133.504 53.702C133.821 53.965 135.367 55.0937 133.295 55.2691C132.726 55.3239 130.961 53.6801 130.446 53.3404C128.496 52.0473 126.512 50.787 124.507 49.5706C121.537 47.7844 118.052 45.242 114.534 44.7708C112.956 44.5626 111.28 45.505 112.441 47.105C113.921 49.1323 116.102 50.8199 117.964 52.4746C119.389 53.7458 120.836 54.9951 122.293 56.2334C122.446 56.0362 122.6 55.8389 122.753 55.6416C120.134 53.954 117.581 52.1678 114.918 50.5459C113.658 49.7789 112.376 49.0227 111.039 48.3981C110.184 48.0036 109.033 47.368 108.058 47.4557C107.269 47.5214 106.601 48.1241 106.447 48.9022C106.228 50.0309 107.258 50.9514 107.894 51.7404C110.469 54.9184 113.406 57.7786 116.606 60.3209C116.978 60.6168 117.504 60.1237 117.143 59.784C115.323 58.1402 113.471 56.6717 111.378 55.3896C109.417 54.1842 107.707 52.1568 105.285 51.9706C103.565 51.85 102.272 53.5486 103.149 55.1376C103.828 56.3649 105.329 57.406 106.261 58.4689C107.554 59.9593 108.737 61.5373 109.833 63.1701C118.512 76.1779 121.625 92.4074 122.666 107.738C123.312 117.25 122.611 126.751 123.192 136.252C123.17 136.8 123.926 136.8 123.893 136.318Z" fill="#251404"/>
<path d="M180.561 139.715C175.87 149.764 167.432 157.939 157.131 162.114C147.532 166.005 134.327 166.114 128.354 156.164C124.837 150.312 124.332 142.959 123.894 136.307C123.861 135.825 123.105 135.825 123.138 136.307C123.543 142.477 124.048 149.052 126.732 154.717C129.045 159.616 133.198 163.101 138.425 164.525C149.219 167.473 160.945 162.575 169.186 155.704C174.281 151.452 178.402 146.104 181.207 140.088C181.415 139.66 180.769 139.277 180.561 139.715Z" fill="#251404"/>
<path d="M103.489 54.8856C104.694 55.028 105.834 54.239 106.196 53.0884C106.338 52.6281 105.615 52.4309 105.472 52.8911C105.209 53.7459 104.366 54.239 103.489 54.1404C103.007 54.0746 103.007 54.8308 103.489 54.8856Z" fill="#251404"/>
<path d="M106.94 50.1078C108.321 50.7434 109.888 50.3379 110.797 49.1215C111.093 48.738 110.436 48.3544 110.151 48.738C109.504 49.6037 108.299 49.8996 107.313 49.4503C106.885 49.264 106.502 49.9105 106.94 50.1078Z" fill="#251404"/>
<path d="M113.121 47.1817C114.283 47.3899 115.39 46.9406 116.091 45.9872C116.376 45.6037 115.729 45.2201 115.444 45.6037C114.962 46.2612 114.118 46.59 113.319 46.4475C112.847 46.3708 112.639 47.094 113.121 47.1817Z" fill="#251404"/>
<path d="M124.408 47.8831C125.636 48.2995 126.929 48.0256 127.904 47.1927C128.277 46.8749 127.74 46.3489 127.367 46.6558C126.589 47.3133 125.559 47.4776 124.606 47.1489C124.145 47.0064 123.948 47.7297 124.408 47.8831Z" fill="#251404"/>
<path d="M86.3284 35.0289C92.9035 35.4672 98.9307 39.0288 102.492 44.5628C102.755 44.9683 103.402 44.5957 103.139 44.1792C99.4238 38.4041 93.1775 34.733 86.3284 34.2728C85.8463 34.2399 85.8463 34.996 86.3284 35.0289Z" fill="#251404"/>
<path d="M94.7003 30.7549C97.1879 31.4782 99.544 32.4973 101.779 33.8123C102.196 34.0644 102.579 33.4069 102.163 33.1658C99.8727 31.8179 97.4618 30.7659 94.8976 30.0317C94.4373 29.8892 94.2291 30.6125 94.7003 30.7549Z" fill="#251404"/>
<path d="M106.591 37.8121C106.218 39.4339 107.457 41.0667 109.111 41.1544C109.594 41.1763 109.594 40.4312 109.111 40.3983C107.95 40.3325 107.051 39.1381 107.314 38.0093C107.424 37.5381 106.701 37.3409 106.591 37.8121Z" fill="#251404"/>
<path d="M110.886 31.1495C110.295 32.6727 111.281 34.4809 112.87 34.8206C113.341 34.9192 113.538 34.196 113.067 34.0973C111.851 33.8343 111.16 32.4974 111.61 31.3467C111.785 30.8974 111.062 30.7112 110.886 31.1495Z" fill="#251404"/>
<path d="M100.497 133.754C99.5769 137.326 99.018 140.942 98.8208 144.624C98.7989 145.107 99.544 145.107 99.5769 144.624C99.7632 141.008 100.322 137.458 101.221 133.951C101.341 133.491 100.618 133.293 100.497 133.754Z" fill="#251404"/>
<path d="M167.454 121.842C167.333 127.902 167.212 133.962 167.092 140.011C167.081 140.493 167.837 140.493 167.848 140.011C167.969 133.951 168.089 127.891 168.21 121.842C168.21 121.36 167.465 121.36 167.454 121.842Z" fill="#251404"/>
<path d="M117.78 67.937C118.624 67.4109 119.467 66.8849 120.322 66.3699C120.739 66.1178 120.355 65.4603 119.939 65.7233C119.095 66.2493 118.251 66.7644 117.396 67.2904C116.991 67.5424 117.374 68.189 117.78 67.937Z" fill="#FFBD1A"/>
<path d="M123.499 64.0469C124.167 63.5209 124.836 62.9839 125.504 62.4579C125.888 62.162 125.351 61.6251 124.967 61.9209C124.299 62.4469 123.63 62.9839 122.962 63.5099C122.589 63.8168 123.126 64.3428 123.499 64.0469Z" fill="#FFBD1A"/>
<path d="M128.508 60.9785C129.275 60.5511 130.042 60.1237 130.809 59.6963C131.236 59.4552 130.853 58.8087 130.425 59.0498C129.658 59.4772 128.891 59.9045 128.124 60.3319C127.708 60.5621 128.08 61.2086 128.508 60.9785Z" fill="#FFBD1A"/>
<path d="M138.042 55.9158C138.645 55.9158 139.237 55.9158 139.839 55.9158C140.321 55.9158 140.321 55.1597 139.839 55.1597C139.237 55.1597 138.645 55.1597 138.042 55.1597C137.56 55.1597 137.56 55.9158 138.042 55.9158Z" fill="#FFBD1A"/>
<path d="M81.4844 38.6561C81.9775 38.2068 82.4816 37.7684 82.9747 37.3191C83.3364 36.9904 82.7994 36.4644 82.4378 36.7822C81.9446 37.2315 81.4405 37.6698 80.9474 38.1191C80.5858 38.4479 81.1227 38.9739 81.4844 38.6561Z" fill="#FFBD1A"/>
<path d="M89.1551 32.508C89.7031 31.8724 90.3606 31.3793 91.1277 31.0286C91.566 30.8204 91.1824 30.1739 90.7441 30.3821C89.9332 30.7656 89.2099 31.3026 88.6182 31.982C88.3113 32.3327 88.8373 32.8697 89.1551 32.508Z" fill="#FFBD1A"/>
<path d="M98.3276 27.7523C99.2372 27.1934 100.147 26.6346 101.056 26.0866C101.473 25.8346 101.089 25.188 100.673 25.4401C99.7632 25.999 98.8536 26.5579 97.9441 27.1058C97.5386 27.3578 97.9222 28.0044 98.3276 27.7523Z" fill="#FFBD1A"/>
<path d="M99.9395 62.0742C100.641 63.7947 101.846 65.3179 103.359 66.4028C104.465 67.1918 106.361 67.5425 106.876 66.2932C107.391 65.0439 105.846 63.97 104.586 63.4878C103.096 62.918 101.594 62.3481 100.104 61.7673L99.9395 62.0742Z" fill="white"/>
<path d="M91.7852 94.8621C90.2729 96.4291 89.0017 98.2263 88.0045 100.166C87.7524 100.67 87.5004 101.24 87.6648 101.777C87.9387 102.719 89.3195 102.906 90.1085 102.325C90.8975 101.744 91.1934 100.714 91.3578 99.7495C91.5989 98.2044 92.0153 96.4072 91.7852 94.8621Z" fill="white"/>
<path d="M87.0295 79.5532C85.4406 81.1422 84.0817 82.9613 83.0187 84.9448C82.7448 85.4599 82.4818 86.0406 82.6352 86.5995C82.8982 87.5748 84.3118 87.805 85.1447 87.2242C85.9666 86.6434 86.3063 85.5914 86.4816 84.5941C86.7665 83.0051 87.2378 81.1532 87.0295 79.5532Z" fill="white"/>
<path d="M68.9045 111.234C67.3156 112.823 65.9567 114.642 64.8937 116.626C64.6198 117.141 64.3568 117.722 64.5102 118.28C64.7732 119.256 66.1868 119.486 67.0197 118.905C67.8416 118.324 68.1813 117.272 68.3566 116.275C68.6415 114.686 69.1128 112.834 68.9045 111.234Z" fill="white"/>
</svg>
