<svg width="19" height="17" viewBox="0 0 19 17" fill="none" xmlns="http://www.w3.org/2000/svg">
<ellipse cx="9.5" cy="8.5" rx="7.125" ry="6.375" stroke="#4F3422" stroke-width="2"/>
<path d="M13.3234 9.41661C13.0979 10.1697 12.6009 10.8351 11.9096 11.3098C11.2183 11.7844 10.3713 12.0416 9.49996 12.0416C8.6286 12.0416 7.78158 11.7844 7.09028 11.3098C6.39898 10.8351 5.90203 10.1697 5.6765 9.41661" stroke="#4F3422" stroke-width="2"/>
<path d="M7.91663 7.4375C7.91663 7.29797 7.88591 7.15981 7.82623 7.0309C7.76656 6.90199 7.67908 6.78486 7.56882 6.6862C7.45855 6.58754 7.32764 6.50927 7.18356 6.45588C7.03949 6.40248 6.88507 6.375 6.72913 6.375C6.57318 6.375 6.41876 6.40248 6.27469 6.45588C6.13062 6.50927 5.99971 6.58754 5.88944 6.6862C5.77917 6.78486 5.6917 6.90199 5.63202 7.0309C5.57234 7.15981 5.54163 7.29797 5.54163 7.4375" stroke="#4F3422" stroke-width="2"/>
<path d="M13.4584 7.4375C13.4584 7.29797 13.4277 7.15981 13.368 7.0309C13.3083 6.90199 13.2208 6.78486 13.1106 6.6862C13.0003 6.58754 12.8694 6.50927 12.7253 6.45588C12.5812 6.40248 12.4268 6.375 12.2709 6.375C12.1149 6.375 11.9605 6.40248 11.8164 6.45588C11.6724 6.50927 11.5415 6.58754 11.4312 6.6862C11.3209 6.78486 11.2334 6.90199 11.1738 7.0309C11.1141 7.15981 11.0834 7.29797 11.0834 7.4375" stroke="#4F3422" stroke-width="2"/>
</svg>
