<svg width="16" height="17" viewBox="0 0 16 17" fill="none" xmlns="http://www.w3.org/2000/svg">
<path d="M6.78923 2.08063C7.26578 0.982891 8.73417 0.98289 9.21072 2.08063L10.1326 4.20408C10.3268 4.65147 10.7258 4.95952 11.1863 5.01753L13.3719 5.29286C14.5018 5.4352 14.9555 6.919 14.1202 7.73977L12.5043 9.32747C12.1639 9.66198 12.0115 10.1604 12.1018 10.6437L12.5308 12.9373C12.7525 14.123 11.5645 15.04 10.5717 14.4495L8.65123 13.3073C8.2466 13.0667 7.75335 13.0667 7.34872 13.3073L5.42822 14.4495C4.4354 15.04 3.24745 14.123 3.46919 12.9373L3.89813 10.6437C3.9885 10.1604 3.83608 9.66199 3.49563 9.32747L1.87976 7.73977C1.04443 6.919 1.49818 5.4352 2.62804 5.29286L4.81364 5.01753C5.27412 4.95952 5.67317 4.65147 5.86739 4.20408L6.78923 2.08063Z" stroke="#4F3422" stroke-width="2" stroke-linejoin="round"/>
</svg>
