<svg width="24" height="24" viewBox="0 0 24 24" fill="none" xmlns="http://www.w3.org/2000/svg">
<path d="M19.9335 5.91237C18.5934 4.16593 16.7145 2.91048 14.5882 2.34073L14.0706 4.27258C15.7716 4.72838 17.2748 5.73274 18.3468 7.1299C19.2145 8.26069 19.7606 9.59765 19.9373 11L2 11V13L19.9373 13C19.7606 14.4023 19.2145 15.7393 18.3468 16.8701C17.2748 18.2672 15.7716 19.2716 14.0706 19.7274L14.5882 21.6592C16.7145 21.0895 18.5934 19.834 19.9335 18.0876C21.2736 16.3412 22 14.2013 22 12C22 9.79864 21.2736 7.65881 19.9335 5.91237Z" fill="white"/>
</svg>
