<svg width="24" height="24" viewBox="0 0 24 24" fill="none" xmlns="http://www.w3.org/2000/svg">
<path d="M20 3V11C20 13.7614 17.7614 16 15 16H5.10102C5.20823 16.5252 5.39966 17.032 5.66987 17.5C6.10871 18.2601 6.7399 18.8913 7.5 19.3301L6.5 21.0622C5.43587 20.4478 4.5522 19.5641 3.93782 18.5C3.32344 17.4359 3 16.2288 3 15C3 13.7712 3.32344 12.5641 3.93782 11.5C4.5522 10.4359 5.43587 9.5522 6.5 8.93782L7.5 10.6699C6.7399 11.1087 6.10872 11.7399 5.66987 12.5C5.39966 12.968 5.20823 13.4748 5.10102 14H15C16.6569 14 18 12.6569 18 11V3H20Z" fill="#4B3425"/>
</svg>
