<svg width="72" height="72" viewBox="0 0 72 72" fill="none" xmlns="http://www.w3.org/2000/svg">
<path d="M36 44C43.732 44 50 50.268 50 58C50 65.732 43.732 72 36 72C28.268 72 22 65.732 22 58C22 50.268 28.268 44 36 44Z" fill="#926247"/>
<path d="M14 22C21.732 22 28 28.268 28 36C28 43.732 21.732 50 14 50C6.26801 50 4.74968e-07 43.732 3.0598e-07 36C1.36992e-07 28.268 6.26801 22 14 22Z" fill="#926247"/>
<path d="M36 3.0598e-07C43.732 1.36992e-07 50 6.26801 50 14C50 21.732 43.732 28 36 28C28.268 28 22 21.732 22 14C22 6.26801 28.268 4.74968e-07 36 3.0598e-07Z" fill="#926247"/>
<path d="M58 22C65.732 22 72 28.268 72 36C72 43.732 65.732 50 58 50C50.268 50 44 43.732 44 36C44 28.268 50.268 22 58 22Z" fill="#926247"/>
</svg>
