<svg width="24" height="24" viewBox="0 0 24 24" fill="none" xmlns="http://www.w3.org/2000/svg">
<rect width="24" height="24" fill="#221F1F" fill-opacity="0.6"/>
<path d="M10 18L5.41421 18C5.149 18 4.89464 18.1054 4.70711 18.2929C4.07714 18.9229 3 18.4767 3 17.5858L3 14C3 11.7909 4.79086 10 7 10L10 10C12.2091 10 14 11.7909 14 14C14 16.2091 12.2091 18 10 18Z" stroke="#53C465" stroke-width="2" stroke-linejoin="round"/>
<path d="M16 12L17 12C19.2091 12 21 10.2091 21 8V8C21 5.79086 19.2091 4 17 4L13 4C10.7909 4 9 5.79086 9 8V8" stroke="#53C465" stroke-width="2" stroke-linejoin="round"/>
<circle cx="7" cy="14" r="1" fill="#53C465"/>
<circle cx="10" cy="14" r="1" fill="#53C465"/>
</svg>
