<svg width="68" height="132" viewBox="0 0 68 132" fill="none" xmlns="http://www.w3.org/2000/svg">
<path d="M59.5 104.333V55.1667C59.5 52.0371 56.9629 49.5 53.8333 49.5C50.7037 49.5 48.1666 52.0371 48.1666 55.1667V104.333C48.1666 107.463 50.7037 110 53.8333 110C56.9629 110 59.5 107.463 59.5 104.333Z" fill="#D9D9D9" stroke="#4F3422" stroke-width="2" stroke-linejoin="round"/>
<path d="M19.8333 104.333V77.1667C19.8333 74.0371 17.2963 71.5 14.1667 71.5C11.0371 71.5 8.5 74.0371 8.5 77.1667V104.333C8.5 107.463 11.0371 110 14.1667 110C17.2963 110 19.8333 107.463 19.8333 104.333Z" fill="#D9D9D9" stroke="#4F3422" stroke-width="2" stroke-linejoin="round"/>
<path d="M39.6667 104.333V27.6667C39.6667 24.5371 37.1297 22 34 22C30.8704 22 28.3334 24.5371 28.3334 27.6667V104.333C28.3334 107.463 30.8704 110 34 110C37.1297 110 39.6667 107.463 39.6667 104.333Z" fill="#D9D9D9" stroke="#4F3422" stroke-width="2" stroke-linejoin="round"/>
</svg>
