<svg width="68" height="71" viewBox="0 0 68 71" fill="none" xmlns="http://www.w3.org/2000/svg">
<path d="M59.5 53.5V32.2917C59.5 29.1621 56.9629 26.625 53.8333 26.625C50.7037 26.625 48.1666 29.1621 48.1666 32.2917V53.5C48.1666 56.6296 50.7037 59.1667 53.8333 59.1667C56.9629 59.1667 59.5 56.6296 59.5 53.5Z" fill="#D9D9D9" stroke="#4F3422" stroke-width="2" stroke-linejoin="round"/>
<path d="M19.8333 53.5V44.125C19.8333 40.9954 17.2963 38.4584 14.1667 38.4584C11.0371 38.4584 8.5 40.9954 8.5 44.125V53.5C8.5 56.6297 11.0371 59.1667 14.1667 59.1667C17.2963 59.1667 19.8333 56.6297 19.8333 53.5Z" fill="#D9D9D9" stroke="#4F3422" stroke-width="2" stroke-linejoin="round"/>
<path d="M39.6667 53.5V17.5C39.6667 14.3704 37.1297 11.8334 34 11.8334C30.8704 11.8334 28.3334 14.3704 28.3334 17.5V53.5C28.3334 56.6297 30.8704 59.1667 34 59.1667C37.1297 59.1667 39.6667 56.6297 39.6667 53.5Z" fill="#D9D9D9" stroke="#4F3422" stroke-width="2" stroke-linejoin="round"/>
</svg>
